G04 #@! TF.FileFunction,Copper,L1,Top,Signal*
%FSLAX46Y46*%
G04 Gerber Fmt 4.6, Leading zero omitted, Abs format (unit mm)*
G04 Created by KiCad (PCBNEW 4.0.2-stable) date Samedi 23 avril 2016 19:09:36*
%MOMM*%
G01*
G04 APERTURE LIST*
%ADD10C,0.100000*%
%ADD11O,2.199640X1.501140*%
%ADD12O,1.501140X2.199640*%
%ADD13C,4.064000*%
%ADD14O,1.699260X3.500120*%
%ADD15O,3.500120X1.699260*%
%ADD16O,1.501140X0.899160*%
%ADD17R,1.500000X1.250000*%
%ADD18R,1.300000X1.500000*%
%ADD19R,1.500000X1.300000*%
%ADD20R,1.270000X1.016000*%
%ADD21R,1.016000X1.270000*%
%ADD22R,1.800860X0.800100*%
%ADD23R,1.550000X0.600000*%
%ADD24O,1.727200X1.727200*%
%ADD25R,1.727200X1.727200*%
%ADD26R,2.032000X3.657600*%
%ADD27R,2.032000X1.016000*%
%ADD28R,2.032000X1.727200*%
%ADD29O,2.032000X1.727200*%
%ADD30R,1.676400X1.676400*%
%ADD31C,1.676400*%
%ADD32C,1.250000*%
%ADD33O,1.998980X1.998980*%
%ADD34R,1.998980X1.998980*%
%ADD35C,2.400000*%
%ADD36R,2.400000X2.400000*%
%ADD37C,0.889000*%
%ADD38C,0.508000*%
%ADD39C,0.254000*%
G04 APERTURE END LIST*
D10*
D11*
X156202000Y-61536000D03*
X156202000Y-64076000D03*
X143502000Y-42486000D03*
X143502000Y-45026000D03*
X143502000Y-47566000D03*
X143502000Y-50106000D03*
X143502000Y-52646000D03*
X143502000Y-55186000D03*
X143502000Y-57726000D03*
X143502000Y-60266000D03*
X143502000Y-62806000D03*
X143502000Y-65346000D03*
X143502000Y-67886000D03*
X143502000Y-70426000D03*
X158742000Y-70426000D03*
X158742000Y-67886000D03*
X158742000Y-65346000D03*
X158742000Y-62806000D03*
X158742000Y-60266000D03*
X158742000Y-57726000D03*
X158742000Y-55186000D03*
X158742000Y-52646000D03*
X158742000Y-50106000D03*
X158742000Y-47566000D03*
X158742000Y-45026000D03*
X158742000Y-42486000D03*
X156202000Y-53916000D03*
X156202000Y-51376000D03*
D12*
X156202000Y-70426000D03*
X153662000Y-70426000D03*
X151122000Y-70426000D03*
D13*
X163938000Y-37338000D03*
X138938000Y-37338000D03*
D14*
X131826000Y-56134000D03*
X134366000Y-56134000D03*
X129286000Y-56134000D03*
X131826000Y-62230000D03*
X134366000Y-62230000D03*
X129286000Y-62230000D03*
D15*
X135890000Y-46228000D03*
X135890000Y-43688000D03*
X135890000Y-48768000D03*
D16*
X124206000Y-69088000D03*
X124206000Y-67818000D03*
X124206000Y-70358000D03*
D17*
X165080000Y-53848000D03*
X162580000Y-53848000D03*
D18*
X139700000Y-58246000D03*
X139700000Y-55546000D03*
X139700000Y-61642000D03*
X139700000Y-64342000D03*
D19*
X149940000Y-67056000D03*
X147240000Y-67056000D03*
D13*
X138938000Y-70104000D03*
X163938000Y-70104000D03*
D20*
X123444000Y-55753000D03*
X123444000Y-57023000D03*
D21*
X146939000Y-37846000D03*
X145669000Y-37846000D03*
X155194000Y-37846000D03*
X156464000Y-37846000D03*
D17*
X153055000Y-67056000D03*
X155555000Y-67056000D03*
X150388000Y-56769000D03*
X152888000Y-56769000D03*
D18*
X123444000Y-64342000D03*
X123444000Y-61642000D03*
X146812000Y-54690000D03*
X146812000Y-51990000D03*
D22*
X150009860Y-52517000D03*
X150009860Y-54417000D03*
X153012140Y-53467000D03*
D23*
X147300000Y-60295000D03*
X147300000Y-61565000D03*
X147300000Y-62835000D03*
X147300000Y-64105000D03*
X152700000Y-64105000D03*
X152700000Y-62835000D03*
X152700000Y-61565000D03*
X152700000Y-60295000D03*
D24*
X162560000Y-65532000D03*
X165100000Y-65532000D03*
X162560000Y-62992000D03*
X165100000Y-62992000D03*
X162560000Y-60452000D03*
X165100000Y-60452000D03*
D25*
X162560000Y-57912000D03*
D24*
X165100000Y-57912000D03*
D26*
X147320000Y-44577000D03*
D27*
X153924000Y-44577000D03*
X153924000Y-42291000D03*
X153924000Y-46863000D03*
D28*
X163576000Y-41910000D03*
D29*
X163576000Y-44450000D03*
X163576000Y-46990000D03*
X163576000Y-49530000D03*
D30*
X123190000Y-49022000D03*
D31*
X125730000Y-49022000D03*
X128270000Y-49022000D03*
X130810000Y-49022000D03*
D32*
X128270000Y-46862000D03*
D33*
X134112000Y-69342000D03*
D34*
X129032000Y-69342000D03*
D33*
X131572000Y-69342000D03*
D35*
X127056000Y-41910000D03*
X123556000Y-41910000D03*
D36*
X130556000Y-41910000D03*
D37*
X148111900Y-70970000D03*
X151161600Y-59884700D03*
X151667600Y-51858400D03*
D38*
X150179300Y-55376200D02*
X150388000Y-55584900D01*
X150009900Y-55376200D02*
X150179300Y-55376200D01*
X150388000Y-56769000D02*
X150388000Y-55584900D01*
X146812000Y-54690000D02*
X150009900Y-54690000D01*
X150009900Y-54417000D02*
X150009900Y-54690000D01*
X150009900Y-54690000D02*
X150009900Y-55376200D01*
X147300000Y-62835000D02*
X148633900Y-62835000D01*
X149940000Y-67056000D02*
X149940000Y-62835000D01*
X150095900Y-62835000D02*
X149940000Y-62835000D01*
X151365900Y-61565000D02*
X150095900Y-62835000D01*
X149940000Y-62835000D02*
X148633900Y-62835000D01*
X149940000Y-67444800D02*
X149940000Y-68265100D01*
X149940000Y-67444800D02*
X149940000Y-67426900D01*
X149940000Y-67056000D02*
X149940000Y-67426900D01*
X151375000Y-67426900D02*
X151745900Y-67056000D01*
X149940000Y-67426900D02*
X151375000Y-67426900D01*
X153055000Y-67056000D02*
X151745900Y-67056000D01*
X152700000Y-61565000D02*
X152229300Y-61565000D01*
X152229300Y-61565000D02*
X151365900Y-61565000D01*
X153924000Y-44577000D02*
X152348900Y-44577000D01*
X124653100Y-66362200D02*
X124206000Y-66809300D01*
X124653100Y-61642000D02*
X124653100Y-66362200D01*
X123444000Y-61642000D02*
X124653100Y-61642000D01*
X124206000Y-67818000D02*
X124206000Y-66809300D01*
X152700000Y-61094300D02*
X152700000Y-60295000D01*
X152229300Y-61565000D02*
X152700000Y-61094300D01*
X150388000Y-56769000D02*
X150388000Y-57953100D01*
X158665100Y-50029100D02*
X154543100Y-50029100D01*
X158742000Y-50106000D02*
X158665100Y-50029100D01*
X152348900Y-47834900D02*
X152348900Y-44577000D01*
X154543100Y-50029100D02*
X152348900Y-47834900D01*
X154496700Y-57357500D02*
X152292600Y-59561600D01*
X154496700Y-50075500D02*
X154496700Y-57357500D01*
X154543100Y-50029100D02*
X154496700Y-50075500D01*
X152700000Y-59969100D02*
X152292600Y-59561600D01*
X152700000Y-60295000D02*
X152700000Y-59969100D01*
X150684000Y-57953100D02*
X150388000Y-57953100D01*
X152292600Y-59561600D02*
X150684000Y-57953100D01*
X165100000Y-55052100D02*
X165080000Y-55032100D01*
X165100000Y-57912000D02*
X165100000Y-55052100D01*
X165080000Y-53848000D02*
X165080000Y-55032100D01*
X166018000Y-51725900D02*
X165080000Y-52663900D01*
X166018000Y-44352000D02*
X166018000Y-51725900D01*
X163576000Y-41910000D02*
X166018000Y-44352000D01*
X165080000Y-53848000D02*
X165080000Y-52663900D01*
X132416700Y-72726700D02*
X129032000Y-69342000D01*
X144931700Y-72726700D02*
X132416700Y-72726700D01*
X149393300Y-68265100D02*
X144931700Y-72726700D01*
X149940000Y-68265100D02*
X149393300Y-68265100D01*
X125949400Y-67818000D02*
X124206000Y-67818000D01*
X127473400Y-69342000D02*
X125949400Y-67818000D01*
X129032000Y-69342000D02*
X127473400Y-69342000D01*
X134112000Y-69342000D02*
X135670600Y-69342000D01*
X139700000Y-64342000D02*
X138490900Y-64342000D01*
X158742000Y-45026000D02*
X160401000Y-45026000D01*
X162580000Y-56469300D02*
X162580000Y-53848000D01*
X162560000Y-56489300D02*
X162580000Y-56469300D01*
X162560000Y-57912000D02*
X162560000Y-56489300D01*
X152888000Y-54550300D02*
X152888000Y-56769000D01*
X153012100Y-54426200D02*
X152888000Y-54550300D01*
X153012100Y-53504400D02*
X153012100Y-54426200D01*
X153012100Y-53504400D02*
X153012100Y-53467000D01*
X153012100Y-53467000D02*
X153012100Y-52507900D01*
X139616800Y-53824800D02*
X139700000Y-53908000D01*
X129286000Y-53824800D02*
X139616800Y-53824800D01*
X139700000Y-55546000D02*
X139700000Y-53908000D01*
X139700000Y-53908000D02*
X143502000Y-50106000D01*
X129286000Y-56134000D02*
X129286000Y-53824800D01*
X156905000Y-46863000D02*
X158742000Y-45026000D01*
X153924000Y-46863000D02*
X156905000Y-46863000D01*
X143502000Y-50106000D02*
X145161000Y-50106000D01*
X157225800Y-43509800D02*
X158742000Y-45026000D01*
X152240900Y-43509800D02*
X157225800Y-43509800D01*
X151530200Y-44220500D02*
X152240900Y-43509800D01*
X151530200Y-50062600D02*
X151530200Y-44220500D01*
X153012100Y-51544500D02*
X151530200Y-50062600D01*
X153012100Y-52507900D02*
X153012100Y-51544500D01*
X145204400Y-50062600D02*
X145161000Y-50106000D01*
X151530200Y-50062600D02*
X145204400Y-50062600D01*
X147300000Y-64105000D02*
X148634100Y-64105000D01*
X138490900Y-66512800D02*
X138490900Y-64342000D01*
X135670600Y-69333100D02*
X138490900Y-66512800D01*
X135670600Y-69342000D02*
X135670600Y-69333100D01*
X148634100Y-64879100D02*
X148634100Y-64105000D01*
X148549100Y-64964100D02*
X148634100Y-64879100D01*
X148549100Y-67942800D02*
X148549100Y-64964100D01*
X144706100Y-71785800D02*
X148549100Y-67942800D01*
X142652000Y-71785800D02*
X144706100Y-71785800D01*
X141790400Y-70924200D02*
X142652000Y-71785800D01*
X141790400Y-69287600D02*
X141790400Y-70924200D01*
X139015600Y-66512800D02*
X141790400Y-69287600D01*
X138490900Y-66512800D02*
X139015600Y-66512800D01*
X123737400Y-58090100D02*
X123444000Y-58090100D01*
X127877300Y-62230000D02*
X123737400Y-58090100D01*
X129286000Y-62230000D02*
X127877300Y-62230000D01*
X123444000Y-57023000D02*
X123444000Y-58090100D01*
X153307900Y-68240100D02*
X155555000Y-68240100D01*
X151122000Y-70426000D02*
X153307900Y-68240100D01*
X155555000Y-67056000D02*
X155555000Y-68240100D01*
X163576000Y-44450000D02*
X163100700Y-44450000D01*
X160977000Y-44450000D02*
X160401000Y-45026000D01*
X163100700Y-44450000D02*
X160977000Y-44450000D01*
X162654000Y-52663900D02*
X162580000Y-52663900D01*
X165198900Y-50119000D02*
X162654000Y-52663900D01*
X165198900Y-46448100D02*
X165198900Y-50119000D01*
X163200800Y-44450000D02*
X165198900Y-46448100D01*
X163100700Y-44450000D02*
X163200800Y-44450000D01*
X162580000Y-53848000D02*
X162580000Y-52663900D01*
D39*
X134366000Y-56134000D02*
X135596900Y-56134000D01*
X137708900Y-58246000D02*
X139700000Y-58246000D01*
X135596900Y-56134000D02*
X137708900Y-58246000D01*
X141619400Y-59134100D02*
X143502000Y-59134100D01*
X140731300Y-58246000D02*
X141619400Y-59134100D01*
X143502000Y-60266000D02*
X143502000Y-59134100D01*
X139700000Y-58246000D02*
X140731300Y-58246000D01*
X134366000Y-62230000D02*
X135596900Y-62230000D01*
X136184900Y-61642000D02*
X139700000Y-61642000D01*
X135596900Y-62230000D02*
X136184900Y-61642000D01*
X143469900Y-61642000D02*
X143502000Y-61674100D01*
X139700000Y-61642000D02*
X143469900Y-61642000D01*
X143502000Y-62806000D02*
X143502000Y-61674100D01*
X146071100Y-64855800D02*
X147240000Y-66024700D01*
X146071100Y-60367600D02*
X146071100Y-64855800D01*
X146143700Y-60295000D02*
X146071100Y-60367600D01*
X147300000Y-60295000D02*
X146143700Y-60295000D01*
X145813200Y-67056000D02*
X144983200Y-67886000D01*
X147240000Y-67056000D02*
X145813200Y-67056000D01*
X143502000Y-67886000D02*
X144983200Y-67886000D01*
X147240000Y-67056000D02*
X147240000Y-66024700D01*
X162560000Y-60452000D02*
X163804900Y-60452000D01*
X149124700Y-71982800D02*
X148111900Y-70970000D01*
X159164200Y-71982800D02*
X149124700Y-71982800D01*
X160769600Y-70377400D02*
X159164200Y-71982800D01*
X160769600Y-69859500D02*
X160769600Y-70377400D01*
X163852200Y-66776900D02*
X160769600Y-69859500D01*
X165655100Y-66776900D02*
X163852200Y-66776900D01*
X166411500Y-66020500D02*
X165655100Y-66776900D01*
X166411500Y-62476700D02*
X166411500Y-66020500D01*
X165631700Y-61696900D02*
X166411500Y-62476700D01*
X164582900Y-61696900D02*
X165631700Y-61696900D01*
X163804900Y-60918900D02*
X164582900Y-61696900D01*
X163804900Y-60452000D02*
X163804900Y-60918900D01*
X152700000Y-64105000D02*
X153856300Y-64105000D01*
X155097300Y-65346000D02*
X153856300Y-64105000D01*
X156202000Y-65346000D02*
X155097300Y-65346000D01*
X157610100Y-66754100D02*
X156202000Y-65346000D01*
X158742000Y-66754100D02*
X157610100Y-66754100D01*
X158742000Y-67886000D02*
X158742000Y-66754100D01*
X159572300Y-66754100D02*
X158742000Y-66754100D01*
X162089500Y-64236900D02*
X159572300Y-66754100D01*
X163077100Y-64236900D02*
X162089500Y-64236900D01*
X163855100Y-63458900D02*
X163077100Y-64236900D01*
X163855100Y-62992000D02*
X163855100Y-63458900D01*
X165100000Y-62992000D02*
X163855100Y-62992000D01*
X149481300Y-61565000D02*
X147300000Y-61565000D01*
X151161600Y-59884700D02*
X149481300Y-61565000D01*
X162560000Y-62992000D02*
X161315100Y-62992000D01*
X161129100Y-62806000D02*
X158742000Y-62806000D01*
X161315100Y-62992000D02*
X161129100Y-62806000D01*
X153885300Y-62806000D02*
X153856300Y-62835000D01*
X158742000Y-62806000D02*
X153885300Y-62806000D01*
X152700000Y-62835000D02*
X153856300Y-62835000D01*
X146812000Y-51990000D02*
X147843300Y-51990000D01*
X148370300Y-52517000D02*
X150009900Y-52517000D01*
X147843300Y-51990000D02*
X148370300Y-52517000D01*
X151291600Y-52234400D02*
X151667600Y-51858400D01*
X151291600Y-52517000D02*
X151291600Y-52234400D01*
X150009900Y-52517000D02*
X151291600Y-52517000D01*
D38*
X155194000Y-37846000D02*
X154126900Y-37846000D01*
X153924000Y-42291000D02*
X152348900Y-42291000D01*
X146939000Y-37846000D02*
X146939000Y-39040100D01*
X152348900Y-42291000D02*
X152348900Y-39040100D01*
X153543000Y-37846000D02*
X154126900Y-37846000D01*
X152348900Y-39040100D02*
X153543000Y-37846000D01*
X135644400Y-50422300D02*
X135890000Y-50176700D01*
X127130300Y-50422300D02*
X135644400Y-50422300D01*
X125730000Y-49022000D02*
X127130300Y-50422300D01*
X135890000Y-48768000D02*
X135890000Y-50176700D01*
X152348900Y-39040100D02*
X146939000Y-39040100D01*
X138199200Y-45537300D02*
X138199200Y-48768000D01*
X144696400Y-39040100D02*
X138199200Y-45537300D01*
X146939000Y-39040100D02*
X144696400Y-39040100D01*
X135890000Y-48768000D02*
X138199200Y-48768000D01*
X128834000Y-43688000D02*
X135890000Y-43688000D01*
X127056000Y-41910000D02*
X128834000Y-43688000D01*
X144041200Y-37846000D02*
X145669000Y-37846000D01*
X138199200Y-43688000D02*
X144041200Y-37846000D01*
X135890000Y-43688000D02*
X138199200Y-43688000D01*
X123190000Y-49022000D02*
X123190000Y-50419300D01*
X131826000Y-62230000D02*
X131826000Y-59920800D01*
X123444000Y-50673300D02*
X123444000Y-55753000D01*
X123190000Y-50419300D02*
X123444000Y-50673300D01*
X130151700Y-59920800D02*
X131826000Y-59920800D01*
X125983900Y-55753000D02*
X130151700Y-59920800D01*
X123444000Y-55753000D02*
X125983900Y-55753000D01*
D39*
X123008600Y-69022500D02*
X123074100Y-69088000D01*
X123008600Y-65908700D02*
X123008600Y-69022500D01*
X123444000Y-65473300D02*
X123008600Y-65908700D01*
X123444000Y-64342000D02*
X123444000Y-65473300D01*
X124206000Y-69088000D02*
X123074100Y-69088000D01*
X159440900Y-53916000D02*
X156202000Y-53916000D01*
X160369100Y-52987800D02*
X159440900Y-53916000D01*
X160369100Y-50819400D02*
X160369100Y-52987800D01*
X162953600Y-48234900D02*
X160369100Y-50819400D01*
X163576000Y-48234900D02*
X162953600Y-48234900D01*
X163576000Y-46990000D02*
X163576000Y-48234900D01*
D38*
X156605800Y-39040100D02*
X158742000Y-41176300D01*
X156464000Y-39040100D02*
X156605800Y-39040100D01*
X158742000Y-42486000D02*
X158742000Y-41176300D01*
X156464000Y-37846000D02*
X156464000Y-39040100D01*
D39*
G36*
X163397413Y-34675668D02*
X162429239Y-35075709D01*
X161678345Y-35825293D01*
X161271464Y-36805173D01*
X161270538Y-37866172D01*
X161675709Y-38846761D01*
X162425293Y-39597655D01*
X163405173Y-40004536D01*
X164466172Y-40005462D01*
X165446761Y-39600291D01*
X166197655Y-38850707D01*
X166569728Y-37954655D01*
X166762713Y-38162485D01*
X166992974Y-39083531D01*
X167209000Y-40440198D01*
X167209000Y-67496533D01*
X166765379Y-69726765D01*
X166605121Y-69966609D01*
X166605462Y-69575828D01*
X166200291Y-68595239D01*
X165450707Y-67844345D01*
X164715112Y-67538900D01*
X165655100Y-67538900D01*
X165946705Y-67480896D01*
X166193915Y-67315715D01*
X166950315Y-66559315D01*
X167115496Y-66312105D01*
X167119097Y-66294000D01*
X167173500Y-66020500D01*
X167173500Y-62476700D01*
X167115496Y-62185095D01*
X167000954Y-62013671D01*
X166950316Y-61937885D01*
X166317400Y-61304970D01*
X166484526Y-61054848D01*
X166598600Y-60481359D01*
X166598600Y-60422641D01*
X166484526Y-59849152D01*
X166159670Y-59362971D01*
X165888828Y-59182000D01*
X166159670Y-59001029D01*
X166484526Y-58514848D01*
X166598600Y-57941359D01*
X166598600Y-57882641D01*
X166484526Y-57309152D01*
X166159670Y-56822971D01*
X165989000Y-56708933D01*
X165989000Y-55090522D01*
X166065317Y-55076162D01*
X166281441Y-54937090D01*
X166426431Y-54724890D01*
X166477440Y-54473000D01*
X166477440Y-53223000D01*
X166433162Y-52987683D01*
X166294090Y-52771559D01*
X166255764Y-52745372D01*
X166646618Y-52354518D01*
X166839329Y-52066106D01*
X166907000Y-51725900D01*
X166907000Y-44352000D01*
X166884084Y-44236794D01*
X166839330Y-44011795D01*
X166646618Y-43723382D01*
X165239440Y-42316204D01*
X165239440Y-41046400D01*
X165195162Y-40811083D01*
X165056090Y-40594959D01*
X164843890Y-40449969D01*
X164592000Y-40398960D01*
X162560000Y-40398960D01*
X162324683Y-40443238D01*
X162108559Y-40582310D01*
X161963569Y-40794510D01*
X161912560Y-41046400D01*
X161912560Y-42773600D01*
X161956838Y-43008917D01*
X162095910Y-43225041D01*
X162308110Y-43370031D01*
X162402927Y-43389232D01*
X162225268Y-43547964D01*
X161971291Y-44075209D01*
X161968642Y-44090974D01*
X162089783Y-44323000D01*
X163449000Y-44323000D01*
X163449000Y-44303000D01*
X163703000Y-44303000D01*
X163703000Y-44323000D01*
X163723000Y-44323000D01*
X163723000Y-44577000D01*
X163703000Y-44577000D01*
X163703000Y-44597000D01*
X163449000Y-44597000D01*
X163449000Y-44577000D01*
X162089783Y-44577000D01*
X161968642Y-44809026D01*
X161971291Y-44824791D01*
X162225268Y-45352036D01*
X162641069Y-45723539D01*
X162331585Y-45930330D01*
X162006729Y-46416511D01*
X161892655Y-46990000D01*
X162006729Y-47563489D01*
X162223284Y-47887586D01*
X160426867Y-49684003D01*
X160405337Y-49575765D01*
X160104983Y-49126254D01*
X159670588Y-48836000D01*
X160104983Y-48545746D01*
X160405337Y-48096235D01*
X160510807Y-47566000D01*
X160405337Y-47035765D01*
X160104983Y-46586254D01*
X159655472Y-46285900D01*
X159647928Y-46284399D01*
X159738817Y-46257499D01*
X160160798Y-45915944D01*
X160419950Y-45438903D01*
X160434133Y-45367275D01*
X160311479Y-45153000D01*
X158869000Y-45153000D01*
X158869000Y-45173000D01*
X158615000Y-45173000D01*
X158615000Y-45153000D01*
X157172521Y-45153000D01*
X157049867Y-45367275D01*
X157064050Y-45438903D01*
X157323202Y-45915944D01*
X157745183Y-46257499D01*
X157836072Y-46284399D01*
X157828528Y-46285900D01*
X157379017Y-46586254D01*
X157078663Y-47035765D01*
X156973193Y-47566000D01*
X157078663Y-48096235D01*
X157379017Y-48545746D01*
X157813412Y-48836000D01*
X157379017Y-49126254D01*
X157369765Y-49140100D01*
X154911336Y-49140100D01*
X153707743Y-47936507D01*
X153797000Y-47847250D01*
X153797000Y-46990000D01*
X154051000Y-46990000D01*
X154051000Y-47847250D01*
X154209750Y-48006000D01*
X155066310Y-48006000D01*
X155299699Y-47909327D01*
X155478327Y-47730698D01*
X155575000Y-47497309D01*
X155575000Y-47148750D01*
X155416250Y-46990000D01*
X154051000Y-46990000D01*
X153797000Y-46990000D01*
X153777000Y-46990000D01*
X153777000Y-46736000D01*
X153797000Y-46736000D01*
X153797000Y-46716000D01*
X154051000Y-46716000D01*
X154051000Y-46736000D01*
X155416250Y-46736000D01*
X155575000Y-46577250D01*
X155575000Y-46228691D01*
X155478327Y-45995302D01*
X155299699Y-45816673D01*
X155066310Y-45720000D01*
X155006113Y-45720000D01*
X155175317Y-45688162D01*
X155391441Y-45549090D01*
X155536431Y-45336890D01*
X155587440Y-45085000D01*
X155587440Y-44069000D01*
X155543162Y-43833683D01*
X155404090Y-43617559D01*
X155191890Y-43472569D01*
X155003686Y-43434457D01*
X155175317Y-43402162D01*
X155391441Y-43263090D01*
X155536431Y-43050890D01*
X155587440Y-42799000D01*
X155587440Y-41783000D01*
X155543162Y-41547683D01*
X155404090Y-41331559D01*
X155191890Y-41186569D01*
X154940000Y-41135560D01*
X153237900Y-41135560D01*
X153237900Y-39408336D01*
X153911236Y-38735000D01*
X154094860Y-38735000D01*
X154221910Y-38932441D01*
X154434110Y-39077431D01*
X154686000Y-39128440D01*
X155592572Y-39128440D01*
X155642671Y-39380306D01*
X155835382Y-39668718D01*
X156123794Y-39861429D01*
X156181339Y-39872875D01*
X157640201Y-41331737D01*
X157379017Y-41506254D01*
X157078663Y-41955765D01*
X156973193Y-42486000D01*
X157078663Y-43016235D01*
X157379017Y-43465746D01*
X157828528Y-43766100D01*
X157836072Y-43767601D01*
X157745183Y-43794501D01*
X157323202Y-44136056D01*
X157064050Y-44613097D01*
X157049867Y-44684725D01*
X157172521Y-44899000D01*
X158615000Y-44899000D01*
X158615000Y-44879000D01*
X158869000Y-44879000D01*
X158869000Y-44899000D01*
X160311479Y-44899000D01*
X160434133Y-44684725D01*
X160419950Y-44613097D01*
X160160798Y-44136056D01*
X159738817Y-43794501D01*
X159647928Y-43767601D01*
X159655472Y-43766100D01*
X160104983Y-43465746D01*
X160405337Y-43016235D01*
X160510807Y-42486000D01*
X160405337Y-41955765D01*
X160104983Y-41506254D01*
X159655472Y-41205900D01*
X159631000Y-41201032D01*
X159631000Y-41176300D01*
X159563329Y-40836094D01*
X159370618Y-40547682D01*
X157563314Y-38740378D01*
X157568431Y-38732890D01*
X157619440Y-38481000D01*
X157619440Y-37211000D01*
X157575162Y-36975683D01*
X157436090Y-36759559D01*
X157223890Y-36614569D01*
X156972000Y-36563560D01*
X155956000Y-36563560D01*
X155824338Y-36588334D01*
X155702000Y-36563560D01*
X154686000Y-36563560D01*
X154450683Y-36607838D01*
X154234559Y-36746910D01*
X154091011Y-36957000D01*
X153543000Y-36957000D01*
X153202794Y-37024671D01*
X152914382Y-37217382D01*
X151980664Y-38151100D01*
X148094440Y-38151100D01*
X148094440Y-37211000D01*
X148050162Y-36975683D01*
X147911090Y-36759559D01*
X147698890Y-36614569D01*
X147447000Y-36563560D01*
X146431000Y-36563560D01*
X146299338Y-36588334D01*
X146177000Y-36563560D01*
X145161000Y-36563560D01*
X144925683Y-36607838D01*
X144709559Y-36746910D01*
X144566011Y-36957000D01*
X144041200Y-36957000D01*
X143700995Y-37024670D01*
X143412582Y-37217382D01*
X137928928Y-42701036D01*
X137886948Y-42638208D01*
X137405299Y-42316381D01*
X136837156Y-42203370D01*
X134942844Y-42203370D01*
X134374701Y-42316381D01*
X133893052Y-42638208D01*
X133785614Y-42799000D01*
X132391000Y-42799000D01*
X132391000Y-42195750D01*
X132232250Y-42037000D01*
X130683000Y-42037000D01*
X130683000Y-42057000D01*
X130429000Y-42057000D01*
X130429000Y-42037000D01*
X130409000Y-42037000D01*
X130409000Y-41783000D01*
X130429000Y-41783000D01*
X130429000Y-40233750D01*
X130683000Y-40233750D01*
X130683000Y-41783000D01*
X132232250Y-41783000D01*
X132391000Y-41624250D01*
X132391000Y-40583690D01*
X132294327Y-40350301D01*
X132115698Y-40171673D01*
X131882309Y-40075000D01*
X130841750Y-40075000D01*
X130683000Y-40233750D01*
X130429000Y-40233750D01*
X130270250Y-40075000D01*
X129229691Y-40075000D01*
X128996302Y-40171673D01*
X128817673Y-40350301D01*
X128721000Y-40583690D01*
X128721000Y-41134395D01*
X128612545Y-40871914D01*
X128096801Y-40355270D01*
X127422605Y-40075319D01*
X126692597Y-40074682D01*
X126017914Y-40353455D01*
X125501270Y-40869199D01*
X125305865Y-41339785D01*
X125112545Y-40871914D01*
X124596801Y-40355270D01*
X123922605Y-40075319D01*
X123192597Y-40074682D01*
X122517914Y-40353455D01*
X122001270Y-40869199D01*
X121721319Y-41543395D01*
X121720682Y-42273403D01*
X121999455Y-42948086D01*
X122515199Y-43464730D01*
X123189395Y-43744681D01*
X123919403Y-43745318D01*
X124594086Y-43466545D01*
X125110730Y-42950801D01*
X125306135Y-42480215D01*
X125499455Y-42948086D01*
X126015199Y-43464730D01*
X126689395Y-43744681D01*
X127419403Y-43745318D01*
X127571314Y-43682550D01*
X128205382Y-44316618D01*
X128493794Y-44509329D01*
X128834000Y-44577000D01*
X133785614Y-44577000D01*
X133893052Y-44737792D01*
X134230873Y-44963516D01*
X133849976Y-45268011D01*
X133569351Y-45777190D01*
X133548460Y-45871168D01*
X133669786Y-46101000D01*
X135763000Y-46101000D01*
X135763000Y-46081000D01*
X136017000Y-46081000D01*
X136017000Y-46101000D01*
X136037000Y-46101000D01*
X136037000Y-46355000D01*
X136017000Y-46355000D01*
X136017000Y-46375000D01*
X135763000Y-46375000D01*
X135763000Y-46355000D01*
X133669786Y-46355000D01*
X133548460Y-46584832D01*
X133569351Y-46678810D01*
X133849976Y-47187989D01*
X134230873Y-47492484D01*
X133893052Y-47718208D01*
X133571225Y-48199857D01*
X133458214Y-48768000D01*
X133571225Y-49336143D01*
X133702961Y-49533300D01*
X132192847Y-49533300D01*
X132282944Y-49316323D01*
X132283455Y-48730248D01*
X132059647Y-48188589D01*
X131645591Y-47773810D01*
X131104323Y-47549056D01*
X130518248Y-47548545D01*
X129976589Y-47772353D01*
X129561810Y-48186409D01*
X129540225Y-48238392D01*
X129519647Y-48188589D01*
X129122797Y-47791046D01*
X129337553Y-47576665D01*
X129529781Y-47113729D01*
X129530218Y-46612470D01*
X129338799Y-46149200D01*
X128984665Y-45794447D01*
X128521729Y-45602219D01*
X128020470Y-45601782D01*
X127557200Y-45793201D01*
X127202447Y-46147335D01*
X127010219Y-46610271D01*
X127009782Y-47111530D01*
X127201201Y-47574800D01*
X127417466Y-47791443D01*
X127021810Y-48186409D01*
X127000225Y-48238392D01*
X126979647Y-48188589D01*
X126565591Y-47773810D01*
X126024323Y-47549056D01*
X125438248Y-47548545D01*
X124896589Y-47772353D01*
X124645402Y-48023102D01*
X124631362Y-47948483D01*
X124492290Y-47732359D01*
X124280090Y-47587369D01*
X124028200Y-47536360D01*
X122351800Y-47536360D01*
X122116483Y-47580638D01*
X121900359Y-47719710D01*
X121755369Y-47931910D01*
X121704360Y-48183800D01*
X121704360Y-49860200D01*
X121748638Y-50095517D01*
X121887710Y-50311641D01*
X122099910Y-50456631D01*
X122317177Y-50500629D01*
X122368671Y-50759506D01*
X122480807Y-50927329D01*
X122555000Y-51038367D01*
X122555000Y-54653860D01*
X122357559Y-54780910D01*
X122212569Y-54993110D01*
X122161560Y-55245000D01*
X122161560Y-56261000D01*
X122181967Y-56369456D01*
X122174000Y-56388691D01*
X122174000Y-56737250D01*
X122332750Y-56896000D01*
X122747569Y-56896000D01*
X122809000Y-56908440D01*
X124079000Y-56908440D01*
X124145113Y-56896000D01*
X124555250Y-56896000D01*
X124714000Y-56737250D01*
X124714000Y-56642000D01*
X125615664Y-56642000D01*
X128874317Y-59900653D01*
X128835190Y-59909351D01*
X128326011Y-60189976D01*
X127962982Y-60644094D01*
X127801370Y-61202570D01*
X127801370Y-62103000D01*
X129159000Y-62103000D01*
X129159000Y-62083000D01*
X129413000Y-62083000D01*
X129413000Y-62103000D01*
X129433000Y-62103000D01*
X129433000Y-62357000D01*
X129413000Y-62357000D01*
X129413000Y-64450214D01*
X129642832Y-64571540D01*
X129736810Y-64550649D01*
X130245989Y-64270024D01*
X130550484Y-63889127D01*
X130776208Y-64226948D01*
X131257857Y-64548775D01*
X131826000Y-64661786D01*
X132394143Y-64548775D01*
X132875792Y-64226948D01*
X133096000Y-63897383D01*
X133316208Y-64226948D01*
X133797857Y-64548775D01*
X134366000Y-64661786D01*
X134537110Y-64627750D01*
X138415000Y-64627750D01*
X138415000Y-65218309D01*
X138511673Y-65451698D01*
X138690301Y-65630327D01*
X138923690Y-65727000D01*
X139414250Y-65727000D01*
X139573000Y-65568250D01*
X139573000Y-64469000D01*
X139827000Y-64469000D01*
X139827000Y-65568250D01*
X139985750Y-65727000D01*
X140476310Y-65727000D01*
X140709699Y-65630327D01*
X140888327Y-65451698D01*
X140985000Y-65218309D01*
X140985000Y-64627750D01*
X140826250Y-64469000D01*
X139827000Y-64469000D01*
X139573000Y-64469000D01*
X138573750Y-64469000D01*
X138415000Y-64627750D01*
X134537110Y-64627750D01*
X134934143Y-64548775D01*
X135415792Y-64226948D01*
X135737619Y-63745299D01*
X135850630Y-63177156D01*
X135850630Y-62941530D01*
X135888505Y-62933996D01*
X136135715Y-62768815D01*
X136500531Y-62404000D01*
X138404818Y-62404000D01*
X138446838Y-62627317D01*
X138585910Y-62843441D01*
X138798110Y-62988431D01*
X138831490Y-62995191D01*
X138690301Y-63053673D01*
X138511673Y-63232302D01*
X138415000Y-63465691D01*
X138415000Y-64056250D01*
X138573750Y-64215000D01*
X139573000Y-64215000D01*
X139573000Y-64195000D01*
X139827000Y-64195000D01*
X139827000Y-64215000D01*
X140826250Y-64215000D01*
X140985000Y-64056250D01*
X140985000Y-63465691D01*
X140888327Y-63232302D01*
X140709699Y-63053673D01*
X140573713Y-62997346D01*
X140585317Y-62995162D01*
X140801441Y-62856090D01*
X140946431Y-62643890D01*
X140995010Y-62404000D01*
X141813156Y-62404000D01*
X141733193Y-62806000D01*
X141838663Y-63336235D01*
X142139017Y-63785746D01*
X142573412Y-64076000D01*
X142139017Y-64366254D01*
X141838663Y-64815765D01*
X141733193Y-65346000D01*
X141838663Y-65876235D01*
X142139017Y-66325746D01*
X142573412Y-66616000D01*
X142139017Y-66906254D01*
X141838663Y-67355765D01*
X141733193Y-67886000D01*
X141838663Y-68416235D01*
X142139017Y-68865746D01*
X142573412Y-69156000D01*
X142139017Y-69446254D01*
X141838663Y-69895765D01*
X141733193Y-70426000D01*
X141838663Y-70956235D01*
X142139017Y-71405746D01*
X142588528Y-71706100D01*
X143118763Y-71811570D01*
X143885237Y-71811570D01*
X144415472Y-71706100D01*
X144864983Y-71405746D01*
X145165337Y-70956235D01*
X145270807Y-70426000D01*
X145165337Y-69895765D01*
X144864983Y-69446254D01*
X144430588Y-69156000D01*
X144864983Y-68865746D01*
X145014657Y-68641743D01*
X145274805Y-68589996D01*
X145522015Y-68424815D01*
X145933304Y-68013527D01*
X146025910Y-68157441D01*
X146238110Y-68302431D01*
X146490000Y-68353440D01*
X147990000Y-68353440D01*
X148061103Y-68340061D01*
X144563464Y-71837700D01*
X140976276Y-71837700D01*
X141197655Y-71616707D01*
X141604536Y-70636827D01*
X141605462Y-69575828D01*
X141200291Y-68595239D01*
X140450707Y-67844345D01*
X139470827Y-67437464D01*
X138409828Y-67436538D01*
X137429239Y-67841709D01*
X136678345Y-68591293D01*
X136271464Y-69571173D01*
X136270538Y-70632172D01*
X136675709Y-71612761D01*
X136900256Y-71837700D01*
X132784936Y-71837700D01*
X131870684Y-70923448D01*
X132229514Y-70852072D01*
X132759781Y-70497759D01*
X132859379Y-70348700D01*
X133152274Y-70665068D01*
X133731645Y-70931627D01*
X133985000Y-70812807D01*
X133985000Y-69469000D01*
X134239000Y-69469000D01*
X134239000Y-70812807D01*
X134492355Y-70931627D01*
X135071726Y-70665068D01*
X135504987Y-70197084D01*
X135701619Y-69722354D01*
X135582265Y-69469000D01*
X134239000Y-69469000D01*
X133985000Y-69469000D01*
X133965000Y-69469000D01*
X133965000Y-69215000D01*
X133985000Y-69215000D01*
X133985000Y-67871193D01*
X134239000Y-67871193D01*
X134239000Y-69215000D01*
X135582265Y-69215000D01*
X135701619Y-68961646D01*
X135504987Y-68486916D01*
X135071726Y-68018932D01*
X134492355Y-67752373D01*
X134239000Y-67871193D01*
X133985000Y-67871193D01*
X133731645Y-67752373D01*
X133152274Y-68018932D01*
X132859379Y-68335300D01*
X132759781Y-68186241D01*
X132229514Y-67831928D01*
X131604022Y-67707510D01*
X131539978Y-67707510D01*
X130914486Y-67831928D01*
X130594923Y-68045453D01*
X130495580Y-67891069D01*
X130283380Y-67746079D01*
X130031490Y-67695070D01*
X128032510Y-67695070D01*
X127797193Y-67739348D01*
X127581069Y-67878420D01*
X127453605Y-68064969D01*
X126578018Y-67189382D01*
X126566976Y-67182004D01*
X126289606Y-66996671D01*
X125949400Y-66929000D01*
X125323024Y-66929000D01*
X125474429Y-66702406D01*
X125542100Y-66362200D01*
X125542100Y-62357000D01*
X127801370Y-62357000D01*
X127801370Y-63257430D01*
X127962982Y-63815906D01*
X128326011Y-64270024D01*
X128835190Y-64550649D01*
X128929168Y-64571540D01*
X129159000Y-64450214D01*
X129159000Y-62357000D01*
X127801370Y-62357000D01*
X125542100Y-62357000D01*
X125542100Y-61642000D01*
X125474429Y-61301794D01*
X125281718Y-61013382D01*
X124993306Y-60820671D01*
X124717703Y-60765850D01*
X124697162Y-60656683D01*
X124558090Y-60440559D01*
X124345890Y-60295569D01*
X124094000Y-60244560D01*
X122794000Y-60244560D01*
X122558683Y-60288838D01*
X122342559Y-60427910D01*
X122197569Y-60640110D01*
X122146560Y-60892000D01*
X122146560Y-62392000D01*
X122190838Y-62627317D01*
X122329910Y-62843441D01*
X122542110Y-62988431D01*
X122555197Y-62991081D01*
X122342559Y-63127910D01*
X122197569Y-63340110D01*
X122146560Y-63592000D01*
X122146560Y-65092000D01*
X122190838Y-65327317D01*
X122329910Y-65543441D01*
X122346324Y-65554656D01*
X122304604Y-65617095D01*
X122246600Y-65908700D01*
X122246600Y-69022500D01*
X122304604Y-69314105D01*
X122469785Y-69561315D01*
X122535285Y-69626815D01*
X122782495Y-69791996D01*
X122975252Y-69830338D01*
X122861019Y-70064065D01*
X122987932Y-70231000D01*
X124079000Y-70231000D01*
X124079000Y-70211000D01*
X124333000Y-70211000D01*
X124333000Y-70231000D01*
X125424068Y-70231000D01*
X125550981Y-70064065D01*
X125386359Y-69727238D01*
X125536156Y-69503051D01*
X125618715Y-69088000D01*
X125542929Y-68707000D01*
X125581164Y-68707000D01*
X126844782Y-69970618D01*
X127133194Y-70163329D01*
X127385070Y-70213430D01*
X127385070Y-70341490D01*
X127429348Y-70576807D01*
X127568420Y-70792931D01*
X127780620Y-70937921D01*
X128032510Y-70988930D01*
X129421694Y-70988930D01*
X131661764Y-73229000D01*
X127308198Y-73229000D01*
X125251941Y-72901577D01*
X124874319Y-72807171D01*
X124615424Y-72648225D01*
X122273282Y-70666413D01*
X122262782Y-70651935D01*
X122861019Y-70651935D01*
X123048294Y-71035111D01*
X123372627Y-71311420D01*
X123778010Y-71442580D01*
X124079000Y-71442580D01*
X124079000Y-70485000D01*
X124333000Y-70485000D01*
X124333000Y-71442580D01*
X124633990Y-71442580D01*
X125039373Y-71311420D01*
X125363706Y-71035111D01*
X125550981Y-70651935D01*
X125424068Y-70485000D01*
X124333000Y-70485000D01*
X124079000Y-70485000D01*
X122987932Y-70485000D01*
X122861019Y-70651935D01*
X122262782Y-70651935D01*
X121630408Y-69780032D01*
X121081000Y-67483214D01*
X121081000Y-57308750D01*
X122174000Y-57308750D01*
X122174000Y-57657309D01*
X122270673Y-57890698D01*
X122449301Y-58069327D01*
X122682690Y-58166000D01*
X123158250Y-58166000D01*
X123317000Y-58007250D01*
X123317000Y-57150000D01*
X123571000Y-57150000D01*
X123571000Y-58007250D01*
X123729750Y-58166000D01*
X124205310Y-58166000D01*
X124438699Y-58069327D01*
X124617327Y-57890698D01*
X124714000Y-57657309D01*
X124714000Y-57308750D01*
X124555250Y-57150000D01*
X123571000Y-57150000D01*
X123317000Y-57150000D01*
X122332750Y-57150000D01*
X122174000Y-57308750D01*
X121081000Y-57308750D01*
X121081000Y-40453467D01*
X121563290Y-38028832D01*
X121671975Y-37866172D01*
X136270538Y-37866172D01*
X136675709Y-38846761D01*
X137425293Y-39597655D01*
X138405173Y-40004536D01*
X139466172Y-40005462D01*
X140446761Y-39600291D01*
X141197655Y-38850707D01*
X141604536Y-37870827D01*
X141605462Y-36809828D01*
X141200291Y-35829239D01*
X140450707Y-35078345D01*
X139470827Y-34671464D01*
X138409828Y-34670538D01*
X137429239Y-35075709D01*
X136678345Y-35825293D01*
X136271464Y-36805173D01*
X136270538Y-37866172D01*
X121671975Y-37866172D01*
X122385907Y-36797699D01*
X123665699Y-35517907D01*
X124896832Y-34695290D01*
X127321467Y-34213000D01*
X161463214Y-34213000D01*
X163397413Y-34675668D01*
X163397413Y-34675668D01*
G37*
X163397413Y-34675668D02*
X162429239Y-35075709D01*
X161678345Y-35825293D01*
X161271464Y-36805173D01*
X161270538Y-37866172D01*
X161675709Y-38846761D01*
X162425293Y-39597655D01*
X163405173Y-40004536D01*
X164466172Y-40005462D01*
X165446761Y-39600291D01*
X166197655Y-38850707D01*
X166569728Y-37954655D01*
X166762713Y-38162485D01*
X166992974Y-39083531D01*
X167209000Y-40440198D01*
X167209000Y-67496533D01*
X166765379Y-69726765D01*
X166605121Y-69966609D01*
X166605462Y-69575828D01*
X166200291Y-68595239D01*
X165450707Y-67844345D01*
X164715112Y-67538900D01*
X165655100Y-67538900D01*
X165946705Y-67480896D01*
X166193915Y-67315715D01*
X166950315Y-66559315D01*
X167115496Y-66312105D01*
X167119097Y-66294000D01*
X167173500Y-66020500D01*
X167173500Y-62476700D01*
X167115496Y-62185095D01*
X167000954Y-62013671D01*
X166950316Y-61937885D01*
X166317400Y-61304970D01*
X166484526Y-61054848D01*
X166598600Y-60481359D01*
X166598600Y-60422641D01*
X166484526Y-59849152D01*
X166159670Y-59362971D01*
X165888828Y-59182000D01*
X166159670Y-59001029D01*
X166484526Y-58514848D01*
X166598600Y-57941359D01*
X166598600Y-57882641D01*
X166484526Y-57309152D01*
X166159670Y-56822971D01*
X165989000Y-56708933D01*
X165989000Y-55090522D01*
X166065317Y-55076162D01*
X166281441Y-54937090D01*
X166426431Y-54724890D01*
X166477440Y-54473000D01*
X166477440Y-53223000D01*
X166433162Y-52987683D01*
X166294090Y-52771559D01*
X166255764Y-52745372D01*
X166646618Y-52354518D01*
X166839329Y-52066106D01*
X166907000Y-51725900D01*
X166907000Y-44352000D01*
X166884084Y-44236794D01*
X166839330Y-44011795D01*
X166646618Y-43723382D01*
X165239440Y-42316204D01*
X165239440Y-41046400D01*
X165195162Y-40811083D01*
X165056090Y-40594959D01*
X164843890Y-40449969D01*
X164592000Y-40398960D01*
X162560000Y-40398960D01*
X162324683Y-40443238D01*
X162108559Y-40582310D01*
X161963569Y-40794510D01*
X161912560Y-41046400D01*
X161912560Y-42773600D01*
X161956838Y-43008917D01*
X162095910Y-43225041D01*
X162308110Y-43370031D01*
X162402927Y-43389232D01*
X162225268Y-43547964D01*
X161971291Y-44075209D01*
X161968642Y-44090974D01*
X162089783Y-44323000D01*
X163449000Y-44323000D01*
X163449000Y-44303000D01*
X163703000Y-44303000D01*
X163703000Y-44323000D01*
X163723000Y-44323000D01*
X163723000Y-44577000D01*
X163703000Y-44577000D01*
X163703000Y-44597000D01*
X163449000Y-44597000D01*
X163449000Y-44577000D01*
X162089783Y-44577000D01*
X161968642Y-44809026D01*
X161971291Y-44824791D01*
X162225268Y-45352036D01*
X162641069Y-45723539D01*
X162331585Y-45930330D01*
X162006729Y-46416511D01*
X161892655Y-46990000D01*
X162006729Y-47563489D01*
X162223284Y-47887586D01*
X160426867Y-49684003D01*
X160405337Y-49575765D01*
X160104983Y-49126254D01*
X159670588Y-48836000D01*
X160104983Y-48545746D01*
X160405337Y-48096235D01*
X160510807Y-47566000D01*
X160405337Y-47035765D01*
X160104983Y-46586254D01*
X159655472Y-46285900D01*
X159647928Y-46284399D01*
X159738817Y-46257499D01*
X160160798Y-45915944D01*
X160419950Y-45438903D01*
X160434133Y-45367275D01*
X160311479Y-45153000D01*
X158869000Y-45153000D01*
X158869000Y-45173000D01*
X158615000Y-45173000D01*
X158615000Y-45153000D01*
X157172521Y-45153000D01*
X157049867Y-45367275D01*
X157064050Y-45438903D01*
X157323202Y-45915944D01*
X157745183Y-46257499D01*
X157836072Y-46284399D01*
X157828528Y-46285900D01*
X157379017Y-46586254D01*
X157078663Y-47035765D01*
X156973193Y-47566000D01*
X157078663Y-48096235D01*
X157379017Y-48545746D01*
X157813412Y-48836000D01*
X157379017Y-49126254D01*
X157369765Y-49140100D01*
X154911336Y-49140100D01*
X153707743Y-47936507D01*
X153797000Y-47847250D01*
X153797000Y-46990000D01*
X154051000Y-46990000D01*
X154051000Y-47847250D01*
X154209750Y-48006000D01*
X155066310Y-48006000D01*
X155299699Y-47909327D01*
X155478327Y-47730698D01*
X155575000Y-47497309D01*
X155575000Y-47148750D01*
X155416250Y-46990000D01*
X154051000Y-46990000D01*
X153797000Y-46990000D01*
X153777000Y-46990000D01*
X153777000Y-46736000D01*
X153797000Y-46736000D01*
X153797000Y-46716000D01*
X154051000Y-46716000D01*
X154051000Y-46736000D01*
X155416250Y-46736000D01*
X155575000Y-46577250D01*
X155575000Y-46228691D01*
X155478327Y-45995302D01*
X155299699Y-45816673D01*
X155066310Y-45720000D01*
X155006113Y-45720000D01*
X155175317Y-45688162D01*
X155391441Y-45549090D01*
X155536431Y-45336890D01*
X155587440Y-45085000D01*
X155587440Y-44069000D01*
X155543162Y-43833683D01*
X155404090Y-43617559D01*
X155191890Y-43472569D01*
X155003686Y-43434457D01*
X155175317Y-43402162D01*
X155391441Y-43263090D01*
X155536431Y-43050890D01*
X155587440Y-42799000D01*
X155587440Y-41783000D01*
X155543162Y-41547683D01*
X155404090Y-41331559D01*
X155191890Y-41186569D01*
X154940000Y-41135560D01*
X153237900Y-41135560D01*
X153237900Y-39408336D01*
X153911236Y-38735000D01*
X154094860Y-38735000D01*
X154221910Y-38932441D01*
X154434110Y-39077431D01*
X154686000Y-39128440D01*
X155592572Y-39128440D01*
X155642671Y-39380306D01*
X155835382Y-39668718D01*
X156123794Y-39861429D01*
X156181339Y-39872875D01*
X157640201Y-41331737D01*
X157379017Y-41506254D01*
X157078663Y-41955765D01*
X156973193Y-42486000D01*
X157078663Y-43016235D01*
X157379017Y-43465746D01*
X157828528Y-43766100D01*
X157836072Y-43767601D01*
X157745183Y-43794501D01*
X157323202Y-44136056D01*
X157064050Y-44613097D01*
X157049867Y-44684725D01*
X157172521Y-44899000D01*
X158615000Y-44899000D01*
X158615000Y-44879000D01*
X158869000Y-44879000D01*
X158869000Y-44899000D01*
X160311479Y-44899000D01*
X160434133Y-44684725D01*
X160419950Y-44613097D01*
X160160798Y-44136056D01*
X159738817Y-43794501D01*
X159647928Y-43767601D01*
X159655472Y-43766100D01*
X160104983Y-43465746D01*
X160405337Y-43016235D01*
X160510807Y-42486000D01*
X160405337Y-41955765D01*
X160104983Y-41506254D01*
X159655472Y-41205900D01*
X159631000Y-41201032D01*
X159631000Y-41176300D01*
X159563329Y-40836094D01*
X159370618Y-40547682D01*
X157563314Y-38740378D01*
X157568431Y-38732890D01*
X157619440Y-38481000D01*
X157619440Y-37211000D01*
X157575162Y-36975683D01*
X157436090Y-36759559D01*
X157223890Y-36614569D01*
X156972000Y-36563560D01*
X155956000Y-36563560D01*
X155824338Y-36588334D01*
X155702000Y-36563560D01*
X154686000Y-36563560D01*
X154450683Y-36607838D01*
X154234559Y-36746910D01*
X154091011Y-36957000D01*
X153543000Y-36957000D01*
X153202794Y-37024671D01*
X152914382Y-37217382D01*
X151980664Y-38151100D01*
X148094440Y-38151100D01*
X148094440Y-37211000D01*
X148050162Y-36975683D01*
X147911090Y-36759559D01*
X147698890Y-36614569D01*
X147447000Y-36563560D01*
X146431000Y-36563560D01*
X146299338Y-36588334D01*
X146177000Y-36563560D01*
X145161000Y-36563560D01*
X144925683Y-36607838D01*
X144709559Y-36746910D01*
X144566011Y-36957000D01*
X144041200Y-36957000D01*
X143700995Y-37024670D01*
X143412582Y-37217382D01*
X137928928Y-42701036D01*
X137886948Y-42638208D01*
X137405299Y-42316381D01*
X136837156Y-42203370D01*
X134942844Y-42203370D01*
X134374701Y-42316381D01*
X133893052Y-42638208D01*
X133785614Y-42799000D01*
X132391000Y-42799000D01*
X132391000Y-42195750D01*
X132232250Y-42037000D01*
X130683000Y-42037000D01*
X130683000Y-42057000D01*
X130429000Y-42057000D01*
X130429000Y-42037000D01*
X130409000Y-42037000D01*
X130409000Y-41783000D01*
X130429000Y-41783000D01*
X130429000Y-40233750D01*
X130683000Y-40233750D01*
X130683000Y-41783000D01*
X132232250Y-41783000D01*
X132391000Y-41624250D01*
X132391000Y-40583690D01*
X132294327Y-40350301D01*
X132115698Y-40171673D01*
X131882309Y-40075000D01*
X130841750Y-40075000D01*
X130683000Y-40233750D01*
X130429000Y-40233750D01*
X130270250Y-40075000D01*
X129229691Y-40075000D01*
X128996302Y-40171673D01*
X128817673Y-40350301D01*
X128721000Y-40583690D01*
X128721000Y-41134395D01*
X128612545Y-40871914D01*
X128096801Y-40355270D01*
X127422605Y-40075319D01*
X126692597Y-40074682D01*
X126017914Y-40353455D01*
X125501270Y-40869199D01*
X125305865Y-41339785D01*
X125112545Y-40871914D01*
X124596801Y-40355270D01*
X123922605Y-40075319D01*
X123192597Y-40074682D01*
X122517914Y-40353455D01*
X122001270Y-40869199D01*
X121721319Y-41543395D01*
X121720682Y-42273403D01*
X121999455Y-42948086D01*
X122515199Y-43464730D01*
X123189395Y-43744681D01*
X123919403Y-43745318D01*
X124594086Y-43466545D01*
X125110730Y-42950801D01*
X125306135Y-42480215D01*
X125499455Y-42948086D01*
X126015199Y-43464730D01*
X126689395Y-43744681D01*
X127419403Y-43745318D01*
X127571314Y-43682550D01*
X128205382Y-44316618D01*
X128493794Y-44509329D01*
X128834000Y-44577000D01*
X133785614Y-44577000D01*
X133893052Y-44737792D01*
X134230873Y-44963516D01*
X133849976Y-45268011D01*
X133569351Y-45777190D01*
X133548460Y-45871168D01*
X133669786Y-46101000D01*
X135763000Y-46101000D01*
X135763000Y-46081000D01*
X136017000Y-46081000D01*
X136017000Y-46101000D01*
X136037000Y-46101000D01*
X136037000Y-46355000D01*
X136017000Y-46355000D01*
X136017000Y-46375000D01*
X135763000Y-46375000D01*
X135763000Y-46355000D01*
X133669786Y-46355000D01*
X133548460Y-46584832D01*
X133569351Y-46678810D01*
X133849976Y-47187989D01*
X134230873Y-47492484D01*
X133893052Y-47718208D01*
X133571225Y-48199857D01*
X133458214Y-48768000D01*
X133571225Y-49336143D01*
X133702961Y-49533300D01*
X132192847Y-49533300D01*
X132282944Y-49316323D01*
X132283455Y-48730248D01*
X132059647Y-48188589D01*
X131645591Y-47773810D01*
X131104323Y-47549056D01*
X130518248Y-47548545D01*
X129976589Y-47772353D01*
X129561810Y-48186409D01*
X129540225Y-48238392D01*
X129519647Y-48188589D01*
X129122797Y-47791046D01*
X129337553Y-47576665D01*
X129529781Y-47113729D01*
X129530218Y-46612470D01*
X129338799Y-46149200D01*
X128984665Y-45794447D01*
X128521729Y-45602219D01*
X128020470Y-45601782D01*
X127557200Y-45793201D01*
X127202447Y-46147335D01*
X127010219Y-46610271D01*
X127009782Y-47111530D01*
X127201201Y-47574800D01*
X127417466Y-47791443D01*
X127021810Y-48186409D01*
X127000225Y-48238392D01*
X126979647Y-48188589D01*
X126565591Y-47773810D01*
X126024323Y-47549056D01*
X125438248Y-47548545D01*
X124896589Y-47772353D01*
X124645402Y-48023102D01*
X124631362Y-47948483D01*
X124492290Y-47732359D01*
X124280090Y-47587369D01*
X124028200Y-47536360D01*
X122351800Y-47536360D01*
X122116483Y-47580638D01*
X121900359Y-47719710D01*
X121755369Y-47931910D01*
X121704360Y-48183800D01*
X121704360Y-49860200D01*
X121748638Y-50095517D01*
X121887710Y-50311641D01*
X122099910Y-50456631D01*
X122317177Y-50500629D01*
X122368671Y-50759506D01*
X122480807Y-50927329D01*
X122555000Y-51038367D01*
X122555000Y-54653860D01*
X122357559Y-54780910D01*
X122212569Y-54993110D01*
X122161560Y-55245000D01*
X122161560Y-56261000D01*
X122181967Y-56369456D01*
X122174000Y-56388691D01*
X122174000Y-56737250D01*
X122332750Y-56896000D01*
X122747569Y-56896000D01*
X122809000Y-56908440D01*
X124079000Y-56908440D01*
X124145113Y-56896000D01*
X124555250Y-56896000D01*
X124714000Y-56737250D01*
X124714000Y-56642000D01*
X125615664Y-56642000D01*
X128874317Y-59900653D01*
X128835190Y-59909351D01*
X128326011Y-60189976D01*
X127962982Y-60644094D01*
X127801370Y-61202570D01*
X127801370Y-62103000D01*
X129159000Y-62103000D01*
X129159000Y-62083000D01*
X129413000Y-62083000D01*
X129413000Y-62103000D01*
X129433000Y-62103000D01*
X129433000Y-62357000D01*
X129413000Y-62357000D01*
X129413000Y-64450214D01*
X129642832Y-64571540D01*
X129736810Y-64550649D01*
X130245989Y-64270024D01*
X130550484Y-63889127D01*
X130776208Y-64226948D01*
X131257857Y-64548775D01*
X131826000Y-64661786D01*
X132394143Y-64548775D01*
X132875792Y-64226948D01*
X133096000Y-63897383D01*
X133316208Y-64226948D01*
X133797857Y-64548775D01*
X134366000Y-64661786D01*
X134537110Y-64627750D01*
X138415000Y-64627750D01*
X138415000Y-65218309D01*
X138511673Y-65451698D01*
X138690301Y-65630327D01*
X138923690Y-65727000D01*
X139414250Y-65727000D01*
X139573000Y-65568250D01*
X139573000Y-64469000D01*
X139827000Y-64469000D01*
X139827000Y-65568250D01*
X139985750Y-65727000D01*
X140476310Y-65727000D01*
X140709699Y-65630327D01*
X140888327Y-65451698D01*
X140985000Y-65218309D01*
X140985000Y-64627750D01*
X140826250Y-64469000D01*
X139827000Y-64469000D01*
X139573000Y-64469000D01*
X138573750Y-64469000D01*
X138415000Y-64627750D01*
X134537110Y-64627750D01*
X134934143Y-64548775D01*
X135415792Y-64226948D01*
X135737619Y-63745299D01*
X135850630Y-63177156D01*
X135850630Y-62941530D01*
X135888505Y-62933996D01*
X136135715Y-62768815D01*
X136500531Y-62404000D01*
X138404818Y-62404000D01*
X138446838Y-62627317D01*
X138585910Y-62843441D01*
X138798110Y-62988431D01*
X138831490Y-62995191D01*
X138690301Y-63053673D01*
X138511673Y-63232302D01*
X138415000Y-63465691D01*
X138415000Y-64056250D01*
X138573750Y-64215000D01*
X139573000Y-64215000D01*
X139573000Y-64195000D01*
X139827000Y-64195000D01*
X139827000Y-64215000D01*
X140826250Y-64215000D01*
X140985000Y-64056250D01*
X140985000Y-63465691D01*
X140888327Y-63232302D01*
X140709699Y-63053673D01*
X140573713Y-62997346D01*
X140585317Y-62995162D01*
X140801441Y-62856090D01*
X140946431Y-62643890D01*
X140995010Y-62404000D01*
X141813156Y-62404000D01*
X141733193Y-62806000D01*
X141838663Y-63336235D01*
X142139017Y-63785746D01*
X142573412Y-64076000D01*
X142139017Y-64366254D01*
X141838663Y-64815765D01*
X141733193Y-65346000D01*
X141838663Y-65876235D01*
X142139017Y-66325746D01*
X142573412Y-66616000D01*
X142139017Y-66906254D01*
X141838663Y-67355765D01*
X141733193Y-67886000D01*
X141838663Y-68416235D01*
X142139017Y-68865746D01*
X142573412Y-69156000D01*
X142139017Y-69446254D01*
X141838663Y-69895765D01*
X141733193Y-70426000D01*
X141838663Y-70956235D01*
X142139017Y-71405746D01*
X142588528Y-71706100D01*
X143118763Y-71811570D01*
X143885237Y-71811570D01*
X144415472Y-71706100D01*
X144864983Y-71405746D01*
X145165337Y-70956235D01*
X145270807Y-70426000D01*
X145165337Y-69895765D01*
X144864983Y-69446254D01*
X144430588Y-69156000D01*
X144864983Y-68865746D01*
X145014657Y-68641743D01*
X145274805Y-68589996D01*
X145522015Y-68424815D01*
X145933304Y-68013527D01*
X146025910Y-68157441D01*
X146238110Y-68302431D01*
X146490000Y-68353440D01*
X147990000Y-68353440D01*
X148061103Y-68340061D01*
X144563464Y-71837700D01*
X140976276Y-71837700D01*
X141197655Y-71616707D01*
X141604536Y-70636827D01*
X141605462Y-69575828D01*
X141200291Y-68595239D01*
X140450707Y-67844345D01*
X139470827Y-67437464D01*
X138409828Y-67436538D01*
X137429239Y-67841709D01*
X136678345Y-68591293D01*
X136271464Y-69571173D01*
X136270538Y-70632172D01*
X136675709Y-71612761D01*
X136900256Y-71837700D01*
X132784936Y-71837700D01*
X131870684Y-70923448D01*
X132229514Y-70852072D01*
X132759781Y-70497759D01*
X132859379Y-70348700D01*
X133152274Y-70665068D01*
X133731645Y-70931627D01*
X133985000Y-70812807D01*
X133985000Y-69469000D01*
X134239000Y-69469000D01*
X134239000Y-70812807D01*
X134492355Y-70931627D01*
X135071726Y-70665068D01*
X135504987Y-70197084D01*
X135701619Y-69722354D01*
X135582265Y-69469000D01*
X134239000Y-69469000D01*
X133985000Y-69469000D01*
X133965000Y-69469000D01*
X133965000Y-69215000D01*
X133985000Y-69215000D01*
X133985000Y-67871193D01*
X134239000Y-67871193D01*
X134239000Y-69215000D01*
X135582265Y-69215000D01*
X135701619Y-68961646D01*
X135504987Y-68486916D01*
X135071726Y-68018932D01*
X134492355Y-67752373D01*
X134239000Y-67871193D01*
X133985000Y-67871193D01*
X133731645Y-67752373D01*
X133152274Y-68018932D01*
X132859379Y-68335300D01*
X132759781Y-68186241D01*
X132229514Y-67831928D01*
X131604022Y-67707510D01*
X131539978Y-67707510D01*
X130914486Y-67831928D01*
X130594923Y-68045453D01*
X130495580Y-67891069D01*
X130283380Y-67746079D01*
X130031490Y-67695070D01*
X128032510Y-67695070D01*
X127797193Y-67739348D01*
X127581069Y-67878420D01*
X127453605Y-68064969D01*
X126578018Y-67189382D01*
X126566976Y-67182004D01*
X126289606Y-66996671D01*
X125949400Y-66929000D01*
X125323024Y-66929000D01*
X125474429Y-66702406D01*
X125542100Y-66362200D01*
X125542100Y-62357000D01*
X127801370Y-62357000D01*
X127801370Y-63257430D01*
X127962982Y-63815906D01*
X128326011Y-64270024D01*
X128835190Y-64550649D01*
X128929168Y-64571540D01*
X129159000Y-64450214D01*
X129159000Y-62357000D01*
X127801370Y-62357000D01*
X125542100Y-62357000D01*
X125542100Y-61642000D01*
X125474429Y-61301794D01*
X125281718Y-61013382D01*
X124993306Y-60820671D01*
X124717703Y-60765850D01*
X124697162Y-60656683D01*
X124558090Y-60440559D01*
X124345890Y-60295569D01*
X124094000Y-60244560D01*
X122794000Y-60244560D01*
X122558683Y-60288838D01*
X122342559Y-60427910D01*
X122197569Y-60640110D01*
X122146560Y-60892000D01*
X122146560Y-62392000D01*
X122190838Y-62627317D01*
X122329910Y-62843441D01*
X122542110Y-62988431D01*
X122555197Y-62991081D01*
X122342559Y-63127910D01*
X122197569Y-63340110D01*
X122146560Y-63592000D01*
X122146560Y-65092000D01*
X122190838Y-65327317D01*
X122329910Y-65543441D01*
X122346324Y-65554656D01*
X122304604Y-65617095D01*
X122246600Y-65908700D01*
X122246600Y-69022500D01*
X122304604Y-69314105D01*
X122469785Y-69561315D01*
X122535285Y-69626815D01*
X122782495Y-69791996D01*
X122975252Y-69830338D01*
X122861019Y-70064065D01*
X122987932Y-70231000D01*
X124079000Y-70231000D01*
X124079000Y-70211000D01*
X124333000Y-70211000D01*
X124333000Y-70231000D01*
X125424068Y-70231000D01*
X125550981Y-70064065D01*
X125386359Y-69727238D01*
X125536156Y-69503051D01*
X125618715Y-69088000D01*
X125542929Y-68707000D01*
X125581164Y-68707000D01*
X126844782Y-69970618D01*
X127133194Y-70163329D01*
X127385070Y-70213430D01*
X127385070Y-70341490D01*
X127429348Y-70576807D01*
X127568420Y-70792931D01*
X127780620Y-70937921D01*
X128032510Y-70988930D01*
X129421694Y-70988930D01*
X131661764Y-73229000D01*
X127308198Y-73229000D01*
X125251941Y-72901577D01*
X124874319Y-72807171D01*
X124615424Y-72648225D01*
X122273282Y-70666413D01*
X122262782Y-70651935D01*
X122861019Y-70651935D01*
X123048294Y-71035111D01*
X123372627Y-71311420D01*
X123778010Y-71442580D01*
X124079000Y-71442580D01*
X124079000Y-70485000D01*
X124333000Y-70485000D01*
X124333000Y-71442580D01*
X124633990Y-71442580D01*
X125039373Y-71311420D01*
X125363706Y-71035111D01*
X125550981Y-70651935D01*
X125424068Y-70485000D01*
X124333000Y-70485000D01*
X124079000Y-70485000D01*
X122987932Y-70485000D01*
X122861019Y-70651935D01*
X122262782Y-70651935D01*
X121630408Y-69780032D01*
X121081000Y-67483214D01*
X121081000Y-57308750D01*
X122174000Y-57308750D01*
X122174000Y-57657309D01*
X122270673Y-57890698D01*
X122449301Y-58069327D01*
X122682690Y-58166000D01*
X123158250Y-58166000D01*
X123317000Y-58007250D01*
X123317000Y-57150000D01*
X123571000Y-57150000D01*
X123571000Y-58007250D01*
X123729750Y-58166000D01*
X124205310Y-58166000D01*
X124438699Y-58069327D01*
X124617327Y-57890698D01*
X124714000Y-57657309D01*
X124714000Y-57308750D01*
X124555250Y-57150000D01*
X123571000Y-57150000D01*
X123317000Y-57150000D01*
X122332750Y-57150000D01*
X122174000Y-57308750D01*
X121081000Y-57308750D01*
X121081000Y-40453467D01*
X121563290Y-38028832D01*
X121671975Y-37866172D01*
X136270538Y-37866172D01*
X136675709Y-38846761D01*
X137425293Y-39597655D01*
X138405173Y-40004536D01*
X139466172Y-40005462D01*
X140446761Y-39600291D01*
X141197655Y-38850707D01*
X141604536Y-37870827D01*
X141605462Y-36809828D01*
X141200291Y-35829239D01*
X140450707Y-35078345D01*
X139470827Y-34671464D01*
X138409828Y-34670538D01*
X137429239Y-35075709D01*
X136678345Y-35825293D01*
X136271464Y-36805173D01*
X136270538Y-37866172D01*
X121671975Y-37866172D01*
X122385907Y-36797699D01*
X123665699Y-35517907D01*
X124896832Y-34695290D01*
X127321467Y-34213000D01*
X161463214Y-34213000D01*
X163397413Y-34675668D01*
G36*
X155682000Y-66929000D02*
X155702000Y-66929000D01*
X155702000Y-67183000D01*
X155682000Y-67183000D01*
X155682000Y-68157250D01*
X155840750Y-68316000D01*
X156431309Y-68316000D01*
X156664698Y-68219327D01*
X156843327Y-68040699D01*
X156940000Y-67807310D01*
X156940000Y-67341750D01*
X156781252Y-67183002D01*
X156940000Y-67183002D01*
X156940000Y-67161630D01*
X157071285Y-67292915D01*
X157105419Y-67315722D01*
X157078663Y-67355765D01*
X156973193Y-67886000D01*
X157078663Y-68416235D01*
X157379017Y-68865746D01*
X157813412Y-69156000D01*
X157419668Y-69419092D01*
X157181746Y-69063017D01*
X156732235Y-68762663D01*
X156202000Y-68657193D01*
X155671765Y-68762663D01*
X155222254Y-69063017D01*
X154932000Y-69497412D01*
X154641746Y-69063017D01*
X154192235Y-68762663D01*
X153662000Y-68657193D01*
X153131765Y-68762663D01*
X152682254Y-69063017D01*
X152381900Y-69512528D01*
X152380399Y-69520072D01*
X152353499Y-69429183D01*
X152011944Y-69007202D01*
X151534903Y-68748050D01*
X151463275Y-68733867D01*
X151249000Y-68856521D01*
X151249000Y-70299000D01*
X151269000Y-70299000D01*
X151269000Y-70553000D01*
X151249000Y-70553000D01*
X151249000Y-70573000D01*
X150995000Y-70573000D01*
X150995000Y-70553000D01*
X149736430Y-70553000D01*
X149736430Y-70902250D01*
X149830711Y-71220800D01*
X149440331Y-71220800D01*
X149191399Y-70971869D01*
X149191587Y-70756216D01*
X149027589Y-70359311D01*
X148792163Y-70123473D01*
X149761536Y-69154100D01*
X149940000Y-69154100D01*
X150146383Y-69113048D01*
X149890501Y-69429183D01*
X149736430Y-69949750D01*
X149736430Y-70299000D01*
X150995000Y-70299000D01*
X150995000Y-68856521D01*
X150780725Y-68733867D01*
X150709097Y-68748050D01*
X150641364Y-68784846D01*
X150761329Y-68605306D01*
X150816150Y-68329703D01*
X150889508Y-68315900D01*
X151375000Y-68315900D01*
X151715206Y-68248229D01*
X151864437Y-68148516D01*
X152053110Y-68277431D01*
X152305000Y-68328440D01*
X153805000Y-68328440D01*
X154040317Y-68284162D01*
X154256441Y-68145090D01*
X154302969Y-68076994D01*
X154445302Y-68219327D01*
X154678691Y-68316000D01*
X155269250Y-68316000D01*
X155428000Y-68157250D01*
X155428000Y-67183000D01*
X155408000Y-67183000D01*
X155408000Y-66929000D01*
X155428000Y-66929000D01*
X155428000Y-66909000D01*
X155682000Y-66909000D01*
X155682000Y-66929000D01*
X155682000Y-66929000D01*
G37*
X155682000Y-66929000D02*
X155702000Y-66929000D01*
X155702000Y-67183000D01*
X155682000Y-67183000D01*
X155682000Y-68157250D01*
X155840750Y-68316000D01*
X156431309Y-68316000D01*
X156664698Y-68219327D01*
X156843327Y-68040699D01*
X156940000Y-67807310D01*
X156940000Y-67341750D01*
X156781252Y-67183002D01*
X156940000Y-67183002D01*
X156940000Y-67161630D01*
X157071285Y-67292915D01*
X157105419Y-67315722D01*
X157078663Y-67355765D01*
X156973193Y-67886000D01*
X157078663Y-68416235D01*
X157379017Y-68865746D01*
X157813412Y-69156000D01*
X157419668Y-69419092D01*
X157181746Y-69063017D01*
X156732235Y-68762663D01*
X156202000Y-68657193D01*
X155671765Y-68762663D01*
X155222254Y-69063017D01*
X154932000Y-69497412D01*
X154641746Y-69063017D01*
X154192235Y-68762663D01*
X153662000Y-68657193D01*
X153131765Y-68762663D01*
X152682254Y-69063017D01*
X152381900Y-69512528D01*
X152380399Y-69520072D01*
X152353499Y-69429183D01*
X152011944Y-69007202D01*
X151534903Y-68748050D01*
X151463275Y-68733867D01*
X151249000Y-68856521D01*
X151249000Y-70299000D01*
X151269000Y-70299000D01*
X151269000Y-70553000D01*
X151249000Y-70553000D01*
X151249000Y-70573000D01*
X150995000Y-70573000D01*
X150995000Y-70553000D01*
X149736430Y-70553000D01*
X149736430Y-70902250D01*
X149830711Y-71220800D01*
X149440331Y-71220800D01*
X149191399Y-70971869D01*
X149191587Y-70756216D01*
X149027589Y-70359311D01*
X148792163Y-70123473D01*
X149761536Y-69154100D01*
X149940000Y-69154100D01*
X150146383Y-69113048D01*
X149890501Y-69429183D01*
X149736430Y-69949750D01*
X149736430Y-70299000D01*
X150995000Y-70299000D01*
X150995000Y-68856521D01*
X150780725Y-68733867D01*
X150709097Y-68748050D01*
X150641364Y-68784846D01*
X150761329Y-68605306D01*
X150816150Y-68329703D01*
X150889508Y-68315900D01*
X151375000Y-68315900D01*
X151715206Y-68248229D01*
X151864437Y-68148516D01*
X152053110Y-68277431D01*
X152305000Y-68328440D01*
X153805000Y-68328440D01*
X154040317Y-68284162D01*
X154256441Y-68145090D01*
X154302969Y-68076994D01*
X154445302Y-68219327D01*
X154678691Y-68316000D01*
X155269250Y-68316000D01*
X155428000Y-68157250D01*
X155428000Y-67183000D01*
X155408000Y-67183000D01*
X155408000Y-66929000D01*
X155428000Y-66929000D01*
X155428000Y-66909000D01*
X155682000Y-66909000D01*
X155682000Y-66929000D01*
G36*
X151459900Y-42291000D02*
X151527571Y-42631206D01*
X151720282Y-42919618D01*
X152008694Y-43112329D01*
X152348900Y-43180000D01*
X152398582Y-43180000D01*
X152443910Y-43250441D01*
X152656110Y-43395431D01*
X152844314Y-43433543D01*
X152672683Y-43465838D01*
X152456559Y-43604910D01*
X152399786Y-43688000D01*
X152348900Y-43688000D01*
X152008694Y-43755671D01*
X151720282Y-43948382D01*
X151527571Y-44236794D01*
X151459900Y-44577000D01*
X151459900Y-47834900D01*
X151527571Y-48175106D01*
X151673419Y-48393382D01*
X151720282Y-48463518D01*
X153607700Y-50350936D01*
X153607700Y-52431950D01*
X153297890Y-52431950D01*
X153139140Y-52590700D01*
X153139140Y-53340000D01*
X153159140Y-53340000D01*
X153159140Y-53594000D01*
X153139140Y-53594000D01*
X153139140Y-54343300D01*
X153297890Y-54502050D01*
X153607700Y-54502050D01*
X153607700Y-55509000D01*
X153173750Y-55509000D01*
X153015000Y-55667750D01*
X153015000Y-56642000D01*
X153035000Y-56642000D01*
X153035000Y-56896000D01*
X153015000Y-56896000D01*
X153015000Y-56916000D01*
X152761000Y-56916000D01*
X152761000Y-56896000D01*
X152741000Y-56896000D01*
X152741000Y-56642000D01*
X152761000Y-56642000D01*
X152761000Y-55667750D01*
X152602250Y-55509000D01*
X152011691Y-55509000D01*
X151778302Y-55605673D01*
X151637064Y-55746910D01*
X151602090Y-55692559D01*
X151389890Y-55547569D01*
X151264525Y-55522182D01*
X151233049Y-55363944D01*
X151361731Y-55281140D01*
X151506721Y-55068940D01*
X151557730Y-54817050D01*
X151557730Y-54188958D01*
X151573383Y-54226748D01*
X151752011Y-54405377D01*
X151985400Y-54502050D01*
X152726390Y-54502050D01*
X152885140Y-54343300D01*
X152885140Y-53594000D01*
X151635460Y-53594000D01*
X151487757Y-53741703D01*
X151374380Y-53565509D01*
X151229283Y-53466368D01*
X151361731Y-53381140D01*
X151453528Y-53246790D01*
X151527530Y-53232070D01*
X151635460Y-53340000D01*
X152885140Y-53340000D01*
X152885140Y-52590700D01*
X152726390Y-52431950D01*
X152598307Y-52431950D01*
X152746913Y-52074068D01*
X152747287Y-51644616D01*
X152583289Y-51247711D01*
X152279886Y-50943778D01*
X151883268Y-50779087D01*
X151453816Y-50778713D01*
X151056911Y-50942711D01*
X150752978Y-51246114D01*
X150660215Y-51469510D01*
X149109430Y-51469510D01*
X148874113Y-51513788D01*
X148657989Y-51652860D01*
X148627870Y-51696940D01*
X148382115Y-51451185D01*
X148134905Y-51286004D01*
X148109440Y-51280939D01*
X148109440Y-51240000D01*
X148065162Y-51004683D01*
X147926090Y-50788559D01*
X147713890Y-50643569D01*
X147462000Y-50592560D01*
X146162000Y-50592560D01*
X145926683Y-50636838D01*
X145710559Y-50775910D01*
X145565569Y-50988110D01*
X145514560Y-51240000D01*
X145514560Y-52740000D01*
X145558838Y-52975317D01*
X145697910Y-53191441D01*
X145910110Y-53336431D01*
X145923197Y-53339081D01*
X145710559Y-53475910D01*
X145565569Y-53688110D01*
X145514560Y-53940000D01*
X145514560Y-55440000D01*
X145558838Y-55675317D01*
X145697910Y-55891441D01*
X145910110Y-56036431D01*
X146162000Y-56087440D01*
X147462000Y-56087440D01*
X147697317Y-56043162D01*
X147913441Y-55904090D01*
X148058431Y-55691890D01*
X148081292Y-55579000D01*
X149161239Y-55579000D01*
X149182495Y-55685858D01*
X149041569Y-55892110D01*
X148990560Y-56144000D01*
X148990560Y-57394000D01*
X149034838Y-57629317D01*
X149173910Y-57845441D01*
X149386110Y-57990431D01*
X149511475Y-58015818D01*
X149566671Y-58293306D01*
X149759382Y-58581718D01*
X150047794Y-58774429D01*
X150297848Y-58824168D01*
X150496760Y-59023068D01*
X150246978Y-59272414D01*
X150082287Y-59669032D01*
X150082098Y-59886572D01*
X149165670Y-60803000D01*
X148680319Y-60803000D01*
X148722440Y-60595000D01*
X148722440Y-59995000D01*
X148678162Y-59759683D01*
X148539090Y-59543559D01*
X148326890Y-59398569D01*
X148075000Y-59347560D01*
X146525000Y-59347560D01*
X146289683Y-59391838D01*
X146073559Y-59530910D01*
X146060874Y-59549475D01*
X145852095Y-59591004D01*
X145732499Y-59670916D01*
X145604885Y-59756185D01*
X145532285Y-59828785D01*
X145367104Y-60075995D01*
X145309100Y-60367600D01*
X145309100Y-64855800D01*
X145367104Y-65147405D01*
X145506550Y-65356100D01*
X145532285Y-65394615D01*
X146063519Y-65925849D01*
X146038559Y-65941910D01*
X145893569Y-66154110D01*
X145865241Y-66294000D01*
X145813200Y-66294000D01*
X145521595Y-66352004D01*
X145274384Y-66517185D01*
X144873127Y-66918442D01*
X144864983Y-66906254D01*
X144430588Y-66616000D01*
X144864983Y-66325746D01*
X145165337Y-65876235D01*
X145270807Y-65346000D01*
X145165337Y-64815765D01*
X144864983Y-64366254D01*
X144430588Y-64076000D01*
X144864983Y-63785746D01*
X145165337Y-63336235D01*
X145270807Y-62806000D01*
X145165337Y-62275765D01*
X144864983Y-61826254D01*
X144430588Y-61536000D01*
X144864983Y-61245746D01*
X145165337Y-60796235D01*
X145270807Y-60266000D01*
X145165337Y-59735765D01*
X144864983Y-59286254D01*
X144430588Y-58996000D01*
X144864983Y-58705746D01*
X145165337Y-58256235D01*
X145270807Y-57726000D01*
X145165337Y-57195765D01*
X144864983Y-56746254D01*
X144430588Y-56456000D01*
X144864983Y-56165746D01*
X145165337Y-55716235D01*
X145270807Y-55186000D01*
X145165337Y-54655765D01*
X144864983Y-54206254D01*
X144430588Y-53916000D01*
X144864983Y-53625746D01*
X145165337Y-53176235D01*
X145270807Y-52646000D01*
X145165337Y-52115765D01*
X144864983Y-51666254D01*
X144415472Y-51365900D01*
X144407928Y-51364399D01*
X144498817Y-51337499D01*
X144920798Y-50995944D01*
X145179950Y-50518903D01*
X145194133Y-50447275D01*
X145071479Y-50233000D01*
X143629000Y-50233000D01*
X143629000Y-50253000D01*
X143375000Y-50253000D01*
X143375000Y-50233000D01*
X141932521Y-50233000D01*
X141809867Y-50447275D01*
X141824050Y-50518903D01*
X142083202Y-50995944D01*
X142505183Y-51337499D01*
X142596072Y-51364399D01*
X142588528Y-51365900D01*
X142139017Y-51666254D01*
X141838663Y-52115765D01*
X141733193Y-52646000D01*
X141838663Y-53176235D01*
X142139017Y-53625746D01*
X142573412Y-53916000D01*
X142139017Y-54206254D01*
X141838663Y-54655765D01*
X141733193Y-55186000D01*
X141838663Y-55716235D01*
X142139017Y-56165746D01*
X142573412Y-56456000D01*
X142139017Y-56746254D01*
X141838663Y-57195765D01*
X141733193Y-57726000D01*
X141838663Y-58256235D01*
X141877926Y-58314996D01*
X141270115Y-57707185D01*
X141255927Y-57697705D01*
X141022905Y-57542004D01*
X140997440Y-57536939D01*
X140997440Y-57496000D01*
X140953162Y-57260683D01*
X140814090Y-57044559D01*
X140601890Y-56899569D01*
X140568510Y-56892809D01*
X140709699Y-56834327D01*
X140888327Y-56655698D01*
X140985000Y-56422309D01*
X140985000Y-55831750D01*
X140826250Y-55673000D01*
X139827000Y-55673000D01*
X139827000Y-55693000D01*
X139573000Y-55693000D01*
X139573000Y-55673000D01*
X138573750Y-55673000D01*
X138415000Y-55831750D01*
X138415000Y-56422309D01*
X138511673Y-56655698D01*
X138690301Y-56834327D01*
X138826287Y-56890654D01*
X138814683Y-56892838D01*
X138598559Y-57031910D01*
X138453569Y-57244110D01*
X138404990Y-57484000D01*
X138024530Y-57484000D01*
X136135715Y-55595185D01*
X136120322Y-55584900D01*
X135888505Y-55430004D01*
X135850630Y-55422470D01*
X135850630Y-55186844D01*
X135747762Y-54669691D01*
X138415000Y-54669691D01*
X138415000Y-55260250D01*
X138573750Y-55419000D01*
X139573000Y-55419000D01*
X139573000Y-54319750D01*
X139827000Y-54319750D01*
X139827000Y-55419000D01*
X140826250Y-55419000D01*
X140985000Y-55260250D01*
X140985000Y-54669691D01*
X140888327Y-54436302D01*
X140709699Y-54257673D01*
X140476310Y-54161000D01*
X139985750Y-54161000D01*
X139827000Y-54319750D01*
X139573000Y-54319750D01*
X139414250Y-54161000D01*
X138923690Y-54161000D01*
X138690301Y-54257673D01*
X138511673Y-54436302D01*
X138415000Y-54669691D01*
X135747762Y-54669691D01*
X135737619Y-54618701D01*
X135415792Y-54137052D01*
X134934143Y-53815225D01*
X134366000Y-53702214D01*
X133797857Y-53815225D01*
X133316208Y-54137052D01*
X133096000Y-54466617D01*
X132875792Y-54137052D01*
X132394143Y-53815225D01*
X131826000Y-53702214D01*
X131257857Y-53815225D01*
X130776208Y-54137052D01*
X130550484Y-54474873D01*
X130245989Y-54093976D01*
X129736810Y-53813351D01*
X129642832Y-53792460D01*
X129413000Y-53913786D01*
X129413000Y-56007000D01*
X129433000Y-56007000D01*
X129433000Y-56261000D01*
X129413000Y-56261000D01*
X129413000Y-56281000D01*
X129159000Y-56281000D01*
X129159000Y-56261000D01*
X127801370Y-56261000D01*
X127801370Y-56313234D01*
X126612518Y-55124382D01*
X126585861Y-55106570D01*
X127801370Y-55106570D01*
X127801370Y-56007000D01*
X129159000Y-56007000D01*
X129159000Y-53913786D01*
X128929168Y-53792460D01*
X128835190Y-53813351D01*
X128326011Y-54093976D01*
X127962982Y-54548094D01*
X127801370Y-55106570D01*
X126585861Y-55106570D01*
X126504340Y-55052100D01*
X126324106Y-54931671D01*
X125983900Y-54864000D01*
X124588418Y-54864000D01*
X124543090Y-54793559D01*
X124333000Y-54650011D01*
X124333000Y-50673300D01*
X124288095Y-50447547D01*
X124479641Y-50324290D01*
X124624631Y-50112090D01*
X124643512Y-50018855D01*
X124894409Y-50270190D01*
X125435677Y-50494944D01*
X125946153Y-50495389D01*
X126501682Y-51050918D01*
X126790094Y-51243629D01*
X127130300Y-51311300D01*
X135644400Y-51311300D01*
X135984606Y-51243629D01*
X136273018Y-51050918D01*
X136518618Y-50805318D01*
X136586238Y-50704118D01*
X136711329Y-50516906D01*
X136763897Y-50252630D01*
X136837156Y-50252630D01*
X137405299Y-50139619D01*
X137886948Y-49817792D01*
X137994386Y-49657000D01*
X138199200Y-49657000D01*
X138539406Y-49589329D01*
X138827818Y-49396618D01*
X139020529Y-49108206D01*
X139088200Y-48768000D01*
X139088200Y-45905536D01*
X141894274Y-43099462D01*
X142139017Y-43465746D01*
X142573412Y-43756000D01*
X142139017Y-44046254D01*
X141838663Y-44495765D01*
X141733193Y-45026000D01*
X141838663Y-45556235D01*
X142139017Y-46005746D01*
X142573412Y-46296000D01*
X142139017Y-46586254D01*
X141838663Y-47035765D01*
X141733193Y-47566000D01*
X141838663Y-48096235D01*
X142139017Y-48545746D01*
X142588528Y-48846100D01*
X142596072Y-48847601D01*
X142505183Y-48874501D01*
X142083202Y-49216056D01*
X141824050Y-49693097D01*
X141809867Y-49764725D01*
X141932521Y-49979000D01*
X143375000Y-49979000D01*
X143375000Y-49959000D01*
X143629000Y-49959000D01*
X143629000Y-49979000D01*
X145071479Y-49979000D01*
X145194133Y-49764725D01*
X145179950Y-49693097D01*
X144920798Y-49216056D01*
X144498817Y-48874501D01*
X144407928Y-48847601D01*
X144415472Y-48846100D01*
X144864983Y-48545746D01*
X145165337Y-48096235D01*
X145270807Y-47566000D01*
X145165337Y-47035765D01*
X144864983Y-46586254D01*
X144430588Y-46296000D01*
X144864983Y-46005746D01*
X145165337Y-45556235D01*
X145270807Y-45026000D01*
X145165337Y-44495765D01*
X144864983Y-44046254D01*
X144430588Y-43756000D01*
X144864983Y-43465746D01*
X145165337Y-43016235D01*
X145218652Y-42748200D01*
X145656560Y-42748200D01*
X145656560Y-46405800D01*
X145700838Y-46641117D01*
X145839910Y-46857241D01*
X146052110Y-47002231D01*
X146304000Y-47053240D01*
X148336000Y-47053240D01*
X148571317Y-47008962D01*
X148787441Y-46869890D01*
X148932431Y-46657690D01*
X148983440Y-46405800D01*
X148983440Y-42748200D01*
X148939162Y-42512883D01*
X148800090Y-42296759D01*
X148587890Y-42151769D01*
X148336000Y-42100760D01*
X146304000Y-42100760D01*
X146068683Y-42145038D01*
X145852559Y-42284110D01*
X145707569Y-42496310D01*
X145656560Y-42748200D01*
X145218652Y-42748200D01*
X145270807Y-42486000D01*
X145165337Y-41955765D01*
X144864983Y-41506254D01*
X144415472Y-41205900D01*
X143891967Y-41101769D01*
X145064636Y-39929100D01*
X151459900Y-39929100D01*
X151459900Y-42291000D01*
X151459900Y-42291000D01*
G37*
X151459900Y-42291000D02*
X151527571Y-42631206D01*
X151720282Y-42919618D01*
X152008694Y-43112329D01*
X152348900Y-43180000D01*
X152398582Y-43180000D01*
X152443910Y-43250441D01*
X152656110Y-43395431D01*
X152844314Y-43433543D01*
X152672683Y-43465838D01*
X152456559Y-43604910D01*
X152399786Y-43688000D01*
X152348900Y-43688000D01*
X152008694Y-43755671D01*
X151720282Y-43948382D01*
X151527571Y-44236794D01*
X151459900Y-44577000D01*
X151459900Y-47834900D01*
X151527571Y-48175106D01*
X151673419Y-48393382D01*
X151720282Y-48463518D01*
X153607700Y-50350936D01*
X153607700Y-52431950D01*
X153297890Y-52431950D01*
X153139140Y-52590700D01*
X153139140Y-53340000D01*
X153159140Y-53340000D01*
X153159140Y-53594000D01*
X153139140Y-53594000D01*
X153139140Y-54343300D01*
X153297890Y-54502050D01*
X153607700Y-54502050D01*
X153607700Y-55509000D01*
X153173750Y-55509000D01*
X153015000Y-55667750D01*
X153015000Y-56642000D01*
X153035000Y-56642000D01*
X153035000Y-56896000D01*
X153015000Y-56896000D01*
X153015000Y-56916000D01*
X152761000Y-56916000D01*
X152761000Y-56896000D01*
X152741000Y-56896000D01*
X152741000Y-56642000D01*
X152761000Y-56642000D01*
X152761000Y-55667750D01*
X152602250Y-55509000D01*
X152011691Y-55509000D01*
X151778302Y-55605673D01*
X151637064Y-55746910D01*
X151602090Y-55692559D01*
X151389890Y-55547569D01*
X151264525Y-55522182D01*
X151233049Y-55363944D01*
X151361731Y-55281140D01*
X151506721Y-55068940D01*
X151557730Y-54817050D01*
X151557730Y-54188958D01*
X151573383Y-54226748D01*
X151752011Y-54405377D01*
X151985400Y-54502050D01*
X152726390Y-54502050D01*
X152885140Y-54343300D01*
X152885140Y-53594000D01*
X151635460Y-53594000D01*
X151487757Y-53741703D01*
X151374380Y-53565509D01*
X151229283Y-53466368D01*
X151361731Y-53381140D01*
X151453528Y-53246790D01*
X151527530Y-53232070D01*
X151635460Y-53340000D01*
X152885140Y-53340000D01*
X152885140Y-52590700D01*
X152726390Y-52431950D01*
X152598307Y-52431950D01*
X152746913Y-52074068D01*
X152747287Y-51644616D01*
X152583289Y-51247711D01*
X152279886Y-50943778D01*
X151883268Y-50779087D01*
X151453816Y-50778713D01*
X151056911Y-50942711D01*
X150752978Y-51246114D01*
X150660215Y-51469510D01*
X149109430Y-51469510D01*
X148874113Y-51513788D01*
X148657989Y-51652860D01*
X148627870Y-51696940D01*
X148382115Y-51451185D01*
X148134905Y-51286004D01*
X148109440Y-51280939D01*
X148109440Y-51240000D01*
X148065162Y-51004683D01*
X147926090Y-50788559D01*
X147713890Y-50643569D01*
X147462000Y-50592560D01*
X146162000Y-50592560D01*
X145926683Y-50636838D01*
X145710559Y-50775910D01*
X145565569Y-50988110D01*
X145514560Y-51240000D01*
X145514560Y-52740000D01*
X145558838Y-52975317D01*
X145697910Y-53191441D01*
X145910110Y-53336431D01*
X145923197Y-53339081D01*
X145710559Y-53475910D01*
X145565569Y-53688110D01*
X145514560Y-53940000D01*
X145514560Y-55440000D01*
X145558838Y-55675317D01*
X145697910Y-55891441D01*
X145910110Y-56036431D01*
X146162000Y-56087440D01*
X147462000Y-56087440D01*
X147697317Y-56043162D01*
X147913441Y-55904090D01*
X148058431Y-55691890D01*
X148081292Y-55579000D01*
X149161239Y-55579000D01*
X149182495Y-55685858D01*
X149041569Y-55892110D01*
X148990560Y-56144000D01*
X148990560Y-57394000D01*
X149034838Y-57629317D01*
X149173910Y-57845441D01*
X149386110Y-57990431D01*
X149511475Y-58015818D01*
X149566671Y-58293306D01*
X149759382Y-58581718D01*
X150047794Y-58774429D01*
X150297848Y-58824168D01*
X150496760Y-59023068D01*
X150246978Y-59272414D01*
X150082287Y-59669032D01*
X150082098Y-59886572D01*
X149165670Y-60803000D01*
X148680319Y-60803000D01*
X148722440Y-60595000D01*
X148722440Y-59995000D01*
X148678162Y-59759683D01*
X148539090Y-59543559D01*
X148326890Y-59398569D01*
X148075000Y-59347560D01*
X146525000Y-59347560D01*
X146289683Y-59391838D01*
X146073559Y-59530910D01*
X146060874Y-59549475D01*
X145852095Y-59591004D01*
X145732499Y-59670916D01*
X145604885Y-59756185D01*
X145532285Y-59828785D01*
X145367104Y-60075995D01*
X145309100Y-60367600D01*
X145309100Y-64855800D01*
X145367104Y-65147405D01*
X145506550Y-65356100D01*
X145532285Y-65394615D01*
X146063519Y-65925849D01*
X146038559Y-65941910D01*
X145893569Y-66154110D01*
X145865241Y-66294000D01*
X145813200Y-66294000D01*
X145521595Y-66352004D01*
X145274384Y-66517185D01*
X144873127Y-66918442D01*
X144864983Y-66906254D01*
X144430588Y-66616000D01*
X144864983Y-66325746D01*
X145165337Y-65876235D01*
X145270807Y-65346000D01*
X145165337Y-64815765D01*
X144864983Y-64366254D01*
X144430588Y-64076000D01*
X144864983Y-63785746D01*
X145165337Y-63336235D01*
X145270807Y-62806000D01*
X145165337Y-62275765D01*
X144864983Y-61826254D01*
X144430588Y-61536000D01*
X144864983Y-61245746D01*
X145165337Y-60796235D01*
X145270807Y-60266000D01*
X145165337Y-59735765D01*
X144864983Y-59286254D01*
X144430588Y-58996000D01*
X144864983Y-58705746D01*
X145165337Y-58256235D01*
X145270807Y-57726000D01*
X145165337Y-57195765D01*
X144864983Y-56746254D01*
X144430588Y-56456000D01*
X144864983Y-56165746D01*
X145165337Y-55716235D01*
X145270807Y-55186000D01*
X145165337Y-54655765D01*
X144864983Y-54206254D01*
X144430588Y-53916000D01*
X144864983Y-53625746D01*
X145165337Y-53176235D01*
X145270807Y-52646000D01*
X145165337Y-52115765D01*
X144864983Y-51666254D01*
X144415472Y-51365900D01*
X144407928Y-51364399D01*
X144498817Y-51337499D01*
X144920798Y-50995944D01*
X145179950Y-50518903D01*
X145194133Y-50447275D01*
X145071479Y-50233000D01*
X143629000Y-50233000D01*
X143629000Y-50253000D01*
X143375000Y-50253000D01*
X143375000Y-50233000D01*
X141932521Y-50233000D01*
X141809867Y-50447275D01*
X141824050Y-50518903D01*
X142083202Y-50995944D01*
X142505183Y-51337499D01*
X142596072Y-51364399D01*
X142588528Y-51365900D01*
X142139017Y-51666254D01*
X141838663Y-52115765D01*
X141733193Y-52646000D01*
X141838663Y-53176235D01*
X142139017Y-53625746D01*
X142573412Y-53916000D01*
X142139017Y-54206254D01*
X141838663Y-54655765D01*
X141733193Y-55186000D01*
X141838663Y-55716235D01*
X142139017Y-56165746D01*
X142573412Y-56456000D01*
X142139017Y-56746254D01*
X141838663Y-57195765D01*
X141733193Y-57726000D01*
X141838663Y-58256235D01*
X141877926Y-58314996D01*
X141270115Y-57707185D01*
X141255927Y-57697705D01*
X141022905Y-57542004D01*
X140997440Y-57536939D01*
X140997440Y-57496000D01*
X140953162Y-57260683D01*
X140814090Y-57044559D01*
X140601890Y-56899569D01*
X140568510Y-56892809D01*
X140709699Y-56834327D01*
X140888327Y-56655698D01*
X140985000Y-56422309D01*
X140985000Y-55831750D01*
X140826250Y-55673000D01*
X139827000Y-55673000D01*
X139827000Y-55693000D01*
X139573000Y-55693000D01*
X139573000Y-55673000D01*
X138573750Y-55673000D01*
X138415000Y-55831750D01*
X138415000Y-56422309D01*
X138511673Y-56655698D01*
X138690301Y-56834327D01*
X138826287Y-56890654D01*
X138814683Y-56892838D01*
X138598559Y-57031910D01*
X138453569Y-57244110D01*
X138404990Y-57484000D01*
X138024530Y-57484000D01*
X136135715Y-55595185D01*
X136120322Y-55584900D01*
X135888505Y-55430004D01*
X135850630Y-55422470D01*
X135850630Y-55186844D01*
X135747762Y-54669691D01*
X138415000Y-54669691D01*
X138415000Y-55260250D01*
X138573750Y-55419000D01*
X139573000Y-55419000D01*
X139573000Y-54319750D01*
X139827000Y-54319750D01*
X139827000Y-55419000D01*
X140826250Y-55419000D01*
X140985000Y-55260250D01*
X140985000Y-54669691D01*
X140888327Y-54436302D01*
X140709699Y-54257673D01*
X140476310Y-54161000D01*
X139985750Y-54161000D01*
X139827000Y-54319750D01*
X139573000Y-54319750D01*
X139414250Y-54161000D01*
X138923690Y-54161000D01*
X138690301Y-54257673D01*
X138511673Y-54436302D01*
X138415000Y-54669691D01*
X135747762Y-54669691D01*
X135737619Y-54618701D01*
X135415792Y-54137052D01*
X134934143Y-53815225D01*
X134366000Y-53702214D01*
X133797857Y-53815225D01*
X133316208Y-54137052D01*
X133096000Y-54466617D01*
X132875792Y-54137052D01*
X132394143Y-53815225D01*
X131826000Y-53702214D01*
X131257857Y-53815225D01*
X130776208Y-54137052D01*
X130550484Y-54474873D01*
X130245989Y-54093976D01*
X129736810Y-53813351D01*
X129642832Y-53792460D01*
X129413000Y-53913786D01*
X129413000Y-56007000D01*
X129433000Y-56007000D01*
X129433000Y-56261000D01*
X129413000Y-56261000D01*
X129413000Y-56281000D01*
X129159000Y-56281000D01*
X129159000Y-56261000D01*
X127801370Y-56261000D01*
X127801370Y-56313234D01*
X126612518Y-55124382D01*
X126585861Y-55106570D01*
X127801370Y-55106570D01*
X127801370Y-56007000D01*
X129159000Y-56007000D01*
X129159000Y-53913786D01*
X128929168Y-53792460D01*
X128835190Y-53813351D01*
X128326011Y-54093976D01*
X127962982Y-54548094D01*
X127801370Y-55106570D01*
X126585861Y-55106570D01*
X126504340Y-55052100D01*
X126324106Y-54931671D01*
X125983900Y-54864000D01*
X124588418Y-54864000D01*
X124543090Y-54793559D01*
X124333000Y-54650011D01*
X124333000Y-50673300D01*
X124288095Y-50447547D01*
X124479641Y-50324290D01*
X124624631Y-50112090D01*
X124643512Y-50018855D01*
X124894409Y-50270190D01*
X125435677Y-50494944D01*
X125946153Y-50495389D01*
X126501682Y-51050918D01*
X126790094Y-51243629D01*
X127130300Y-51311300D01*
X135644400Y-51311300D01*
X135984606Y-51243629D01*
X136273018Y-51050918D01*
X136518618Y-50805318D01*
X136586238Y-50704118D01*
X136711329Y-50516906D01*
X136763897Y-50252630D01*
X136837156Y-50252630D01*
X137405299Y-50139619D01*
X137886948Y-49817792D01*
X137994386Y-49657000D01*
X138199200Y-49657000D01*
X138539406Y-49589329D01*
X138827818Y-49396618D01*
X139020529Y-49108206D01*
X139088200Y-48768000D01*
X139088200Y-45905536D01*
X141894274Y-43099462D01*
X142139017Y-43465746D01*
X142573412Y-43756000D01*
X142139017Y-44046254D01*
X141838663Y-44495765D01*
X141733193Y-45026000D01*
X141838663Y-45556235D01*
X142139017Y-46005746D01*
X142573412Y-46296000D01*
X142139017Y-46586254D01*
X141838663Y-47035765D01*
X141733193Y-47566000D01*
X141838663Y-48096235D01*
X142139017Y-48545746D01*
X142588528Y-48846100D01*
X142596072Y-48847601D01*
X142505183Y-48874501D01*
X142083202Y-49216056D01*
X141824050Y-49693097D01*
X141809867Y-49764725D01*
X141932521Y-49979000D01*
X143375000Y-49979000D01*
X143375000Y-49959000D01*
X143629000Y-49959000D01*
X143629000Y-49979000D01*
X145071479Y-49979000D01*
X145194133Y-49764725D01*
X145179950Y-49693097D01*
X144920798Y-49216056D01*
X144498817Y-48874501D01*
X144407928Y-48847601D01*
X144415472Y-48846100D01*
X144864983Y-48545746D01*
X145165337Y-48096235D01*
X145270807Y-47566000D01*
X145165337Y-47035765D01*
X144864983Y-46586254D01*
X144430588Y-46296000D01*
X144864983Y-46005746D01*
X145165337Y-45556235D01*
X145270807Y-45026000D01*
X145165337Y-44495765D01*
X144864983Y-44046254D01*
X144430588Y-43756000D01*
X144864983Y-43465746D01*
X145165337Y-43016235D01*
X145218652Y-42748200D01*
X145656560Y-42748200D01*
X145656560Y-46405800D01*
X145700838Y-46641117D01*
X145839910Y-46857241D01*
X146052110Y-47002231D01*
X146304000Y-47053240D01*
X148336000Y-47053240D01*
X148571317Y-47008962D01*
X148787441Y-46869890D01*
X148932431Y-46657690D01*
X148983440Y-46405800D01*
X148983440Y-42748200D01*
X148939162Y-42512883D01*
X148800090Y-42296759D01*
X148587890Y-42151769D01*
X148336000Y-42100760D01*
X146304000Y-42100760D01*
X146068683Y-42145038D01*
X145852559Y-42284110D01*
X145707569Y-42496310D01*
X145656560Y-42748200D01*
X145218652Y-42748200D01*
X145270807Y-42486000D01*
X145165337Y-41955765D01*
X144864983Y-41506254D01*
X144415472Y-41205900D01*
X143891967Y-41101769D01*
X145064636Y-39929100D01*
X151459900Y-39929100D01*
X151459900Y-42291000D01*
G36*
X149051000Y-65784715D02*
X148954683Y-65802838D01*
X148738559Y-65941910D01*
X148593569Y-66154110D01*
X148590919Y-66167197D01*
X148454090Y-65954559D01*
X148241890Y-65809569D01*
X147990000Y-65758560D01*
X147949061Y-65758560D01*
X147943996Y-65733095D01*
X147914152Y-65688431D01*
X147778815Y-65485884D01*
X147332930Y-65040000D01*
X147427002Y-65040000D01*
X147427002Y-64881252D01*
X147585750Y-65040000D01*
X148201309Y-65040000D01*
X148434698Y-64943327D01*
X148613327Y-64764699D01*
X148710000Y-64531310D01*
X148710000Y-64390750D01*
X148551250Y-64232000D01*
X147427000Y-64232000D01*
X147427000Y-64252000D01*
X147173000Y-64252000D01*
X147173000Y-64232000D01*
X147153000Y-64232000D01*
X147153000Y-63978000D01*
X147173000Y-63978000D01*
X147173000Y-63958000D01*
X147427000Y-63958000D01*
X147427000Y-63978000D01*
X148551250Y-63978000D01*
X148710000Y-63819250D01*
X148710000Y-63724000D01*
X149051000Y-63724000D01*
X149051000Y-65784715D01*
X149051000Y-65784715D01*
G37*
X149051000Y-65784715D02*
X148954683Y-65802838D01*
X148738559Y-65941910D01*
X148593569Y-66154110D01*
X148590919Y-66167197D01*
X148454090Y-65954559D01*
X148241890Y-65809569D01*
X147990000Y-65758560D01*
X147949061Y-65758560D01*
X147943996Y-65733095D01*
X147914152Y-65688431D01*
X147778815Y-65485884D01*
X147332930Y-65040000D01*
X147427002Y-65040000D01*
X147427002Y-64881252D01*
X147585750Y-65040000D01*
X148201309Y-65040000D01*
X148434698Y-64943327D01*
X148613327Y-64764699D01*
X148710000Y-64531310D01*
X148710000Y-64390750D01*
X148551250Y-64232000D01*
X147427000Y-64232000D01*
X147427000Y-64252000D01*
X147173000Y-64252000D01*
X147173000Y-64232000D01*
X147153000Y-64232000D01*
X147153000Y-63978000D01*
X147173000Y-63978000D01*
X147173000Y-63958000D01*
X147427000Y-63958000D01*
X147427000Y-63978000D01*
X148551250Y-63978000D01*
X148710000Y-63819250D01*
X148710000Y-63724000D01*
X149051000Y-63724000D01*
X149051000Y-65784715D01*
G36*
X165129000Y-51357664D02*
X164451382Y-52035282D01*
X164258671Y-52323694D01*
X164203850Y-52599297D01*
X164094683Y-52619838D01*
X163878559Y-52758910D01*
X163832031Y-52827006D01*
X163689698Y-52684673D01*
X163456309Y-52588000D01*
X162865750Y-52588000D01*
X162707000Y-52746750D01*
X162707000Y-53721000D01*
X162727000Y-53721000D01*
X162727000Y-53975000D01*
X162707000Y-53975000D01*
X162707000Y-54949250D01*
X162865750Y-55108000D01*
X163456309Y-55108000D01*
X163689698Y-55011327D01*
X163830936Y-54870090D01*
X163865910Y-54924441D01*
X164078110Y-55069431D01*
X164203475Y-55094818D01*
X164211000Y-55132647D01*
X164211000Y-56708933D01*
X164040330Y-56822971D01*
X164026263Y-56844023D01*
X163961927Y-56688702D01*
X163783299Y-56510073D01*
X163549910Y-56413400D01*
X162845750Y-56413400D01*
X162687000Y-56572150D01*
X162687000Y-57785000D01*
X162707000Y-57785000D01*
X162707000Y-58039000D01*
X162687000Y-58039000D01*
X162687000Y-58059000D01*
X162433000Y-58059000D01*
X162433000Y-58039000D01*
X161220150Y-58039000D01*
X161061400Y-58197750D01*
X161061400Y-58901909D01*
X161158073Y-59135298D01*
X161336701Y-59313927D01*
X161490526Y-59377644D01*
X161175474Y-59849152D01*
X161061400Y-60422641D01*
X161061400Y-60481359D01*
X161175474Y-61054848D01*
X161500330Y-61541029D01*
X161771172Y-61722000D01*
X161500330Y-61902971D01*
X161373601Y-62092634D01*
X161129100Y-62044000D01*
X160250476Y-62044000D01*
X160104983Y-61826254D01*
X159670588Y-61536000D01*
X160104983Y-61245746D01*
X160405337Y-60796235D01*
X160510807Y-60266000D01*
X160405337Y-59735765D01*
X160104983Y-59286254D01*
X159670588Y-58996000D01*
X160104983Y-58705746D01*
X160405337Y-58256235D01*
X160510807Y-57726000D01*
X160405337Y-57195765D01*
X160222474Y-56922091D01*
X161061400Y-56922091D01*
X161061400Y-57626250D01*
X161220150Y-57785000D01*
X162433000Y-57785000D01*
X162433000Y-56572150D01*
X162274250Y-56413400D01*
X161570090Y-56413400D01*
X161336701Y-56510073D01*
X161158073Y-56688702D01*
X161061400Y-56922091D01*
X160222474Y-56922091D01*
X160104983Y-56746254D01*
X159670588Y-56456000D01*
X160104983Y-56165746D01*
X160405337Y-55716235D01*
X160510807Y-55186000D01*
X160405337Y-54655765D01*
X160154367Y-54280163D01*
X160300780Y-54133750D01*
X161195000Y-54133750D01*
X161195000Y-54599310D01*
X161291673Y-54832699D01*
X161470302Y-55011327D01*
X161703691Y-55108000D01*
X162294250Y-55108000D01*
X162453000Y-54949250D01*
X162453000Y-53975000D01*
X161353750Y-53975000D01*
X161195000Y-54133750D01*
X160300780Y-54133750D01*
X160907915Y-53526615D01*
X161002028Y-53385765D01*
X161073096Y-53279405D01*
X161109440Y-53096690D01*
X161195000Y-53096690D01*
X161195000Y-53562250D01*
X161353750Y-53721000D01*
X162453000Y-53721000D01*
X162453000Y-52746750D01*
X162294250Y-52588000D01*
X161703691Y-52588000D01*
X161470302Y-52684673D01*
X161291673Y-52863301D01*
X161195000Y-53096690D01*
X161109440Y-53096690D01*
X161131100Y-52987800D01*
X161131100Y-51135030D01*
X162069179Y-50196951D01*
X162331585Y-50589670D01*
X162817766Y-50914526D01*
X163391255Y-51028600D01*
X163760745Y-51028600D01*
X164334234Y-50914526D01*
X164820415Y-50589670D01*
X165129000Y-50127840D01*
X165129000Y-51357664D01*
X165129000Y-51357664D01*
G37*
X165129000Y-51357664D02*
X164451382Y-52035282D01*
X164258671Y-52323694D01*
X164203850Y-52599297D01*
X164094683Y-52619838D01*
X163878559Y-52758910D01*
X163832031Y-52827006D01*
X163689698Y-52684673D01*
X163456309Y-52588000D01*
X162865750Y-52588000D01*
X162707000Y-52746750D01*
X162707000Y-53721000D01*
X162727000Y-53721000D01*
X162727000Y-53975000D01*
X162707000Y-53975000D01*
X162707000Y-54949250D01*
X162865750Y-55108000D01*
X163456309Y-55108000D01*
X163689698Y-55011327D01*
X163830936Y-54870090D01*
X163865910Y-54924441D01*
X164078110Y-55069431D01*
X164203475Y-55094818D01*
X164211000Y-55132647D01*
X164211000Y-56708933D01*
X164040330Y-56822971D01*
X164026263Y-56844023D01*
X163961927Y-56688702D01*
X163783299Y-56510073D01*
X163549910Y-56413400D01*
X162845750Y-56413400D01*
X162687000Y-56572150D01*
X162687000Y-57785000D01*
X162707000Y-57785000D01*
X162707000Y-58039000D01*
X162687000Y-58039000D01*
X162687000Y-58059000D01*
X162433000Y-58059000D01*
X162433000Y-58039000D01*
X161220150Y-58039000D01*
X161061400Y-58197750D01*
X161061400Y-58901909D01*
X161158073Y-59135298D01*
X161336701Y-59313927D01*
X161490526Y-59377644D01*
X161175474Y-59849152D01*
X161061400Y-60422641D01*
X161061400Y-60481359D01*
X161175474Y-61054848D01*
X161500330Y-61541029D01*
X161771172Y-61722000D01*
X161500330Y-61902971D01*
X161373601Y-62092634D01*
X161129100Y-62044000D01*
X160250476Y-62044000D01*
X160104983Y-61826254D01*
X159670588Y-61536000D01*
X160104983Y-61245746D01*
X160405337Y-60796235D01*
X160510807Y-60266000D01*
X160405337Y-59735765D01*
X160104983Y-59286254D01*
X159670588Y-58996000D01*
X160104983Y-58705746D01*
X160405337Y-58256235D01*
X160510807Y-57726000D01*
X160405337Y-57195765D01*
X160222474Y-56922091D01*
X161061400Y-56922091D01*
X161061400Y-57626250D01*
X161220150Y-57785000D01*
X162433000Y-57785000D01*
X162433000Y-56572150D01*
X162274250Y-56413400D01*
X161570090Y-56413400D01*
X161336701Y-56510073D01*
X161158073Y-56688702D01*
X161061400Y-56922091D01*
X160222474Y-56922091D01*
X160104983Y-56746254D01*
X159670588Y-56456000D01*
X160104983Y-56165746D01*
X160405337Y-55716235D01*
X160510807Y-55186000D01*
X160405337Y-54655765D01*
X160154367Y-54280163D01*
X160300780Y-54133750D01*
X161195000Y-54133750D01*
X161195000Y-54599310D01*
X161291673Y-54832699D01*
X161470302Y-55011327D01*
X161703691Y-55108000D01*
X162294250Y-55108000D01*
X162453000Y-54949250D01*
X162453000Y-53975000D01*
X161353750Y-53975000D01*
X161195000Y-54133750D01*
X160300780Y-54133750D01*
X160907915Y-53526615D01*
X161002028Y-53385765D01*
X161073096Y-53279405D01*
X161109440Y-53096690D01*
X161195000Y-53096690D01*
X161195000Y-53562250D01*
X161353750Y-53721000D01*
X162453000Y-53721000D01*
X162453000Y-52746750D01*
X162294250Y-52588000D01*
X161703691Y-52588000D01*
X161470302Y-52684673D01*
X161291673Y-52863301D01*
X161195000Y-53096690D01*
X161109440Y-53096690D01*
X161131100Y-52987800D01*
X161131100Y-51135030D01*
X162069179Y-50196951D01*
X162331585Y-50589670D01*
X162817766Y-50914526D01*
X163391255Y-51028600D01*
X163760745Y-51028600D01*
X164334234Y-50914526D01*
X164820415Y-50589670D01*
X165129000Y-50127840D01*
X165129000Y-51357664D01*
M02*
