M48
;DRILL file {KiCad 4.0.2-stable} date Samedi 23 avril 2016 19:09:39
;FORMAT={-:-/ absolute / metric / decimal}
FMAT,2
METRIC,TZ
T1C0.432
T2C0.600
T3C0.800
T4C1.001
T5C1.016
T6C1.097
T7C1.200
T8C1.250
T9C3.200
%
G90
G05
M71
T1
X148.112Y-70.97
X151.162Y-59.885
X151.668Y-51.858
T2
X124.206Y-67.818
X124.206Y-69.088
X124.206Y-70.358
T3
X143.502Y-42.486
X143.502Y-45.026
X143.502Y-47.566
X143.502Y-50.106
X143.502Y-52.646
X143.502Y-55.186
X143.502Y-57.726
X143.502Y-60.266
X143.502Y-62.806
X143.502Y-65.346
X143.502Y-67.886
X143.502Y-70.426
X151.122Y-70.426
X153.662Y-70.426
X156.202Y-51.376
X156.202Y-53.916
X156.202Y-61.536
X156.202Y-64.076
X156.202Y-70.426
X158.742Y-42.486
X158.742Y-45.026
X158.742Y-47.566
X158.742Y-50.106
X158.742Y-52.646
X158.742Y-55.186
X158.742Y-57.726
X158.742Y-60.266
X158.742Y-62.806
X158.742Y-65.346
X158.742Y-67.886
X158.742Y-70.426
T4
X129.286Y-56.134
X129.286Y-62.23
X131.826Y-56.134
X131.826Y-62.23
X134.366Y-56.134
X134.366Y-62.23
X135.89Y-43.688
X135.89Y-46.228
X135.89Y-48.768
T5
X123.19Y-49.022
X125.73Y-49.022
X128.27Y-49.022
X130.81Y-49.022
X162.56Y-57.912
X162.56Y-60.452
X162.56Y-62.992
X162.56Y-65.532
X163.576Y-41.91
X163.576Y-44.45
X163.576Y-46.99
X163.576Y-49.53
X165.1Y-57.912
X165.1Y-60.452
X165.1Y-62.992
X165.1Y-65.532
T6
X129.032Y-69.342
X131.572Y-69.342
X134.112Y-69.342
T7
X123.556Y-41.91
X127.056Y-41.91
X130.556Y-41.91
T8
X128.27Y-46.862
T9
X138.938Y-37.338
X138.938Y-70.104
X163.938Y-37.338
X163.938Y-70.104
T0
M30
