G04 #@! TF.FileFunction,Legend,Top*
%FSLAX46Y46*%
G04 Gerber Fmt 4.6, Leading zero omitted, Abs format (unit mm)*
G04 Created by KiCad (PCBNEW 4.0.2-stable) date Samedi 23 avril 2016 19:09:36*
%MOMM*%
G01*
G04 APERTURE LIST*
%ADD10C,0.100000*%
%ADD11C,0.150000*%
%ADD12C,0.200000*%
%ADD13C,0.127000*%
G04 APERTURE END LIST*
D10*
X137219048Y-42038095D02*
X136952381Y-41238095D01*
X136685714Y-42038095D01*
X136419048Y-41238095D02*
X136419048Y-41771429D01*
X136419048Y-41619048D02*
X136380953Y-41695238D01*
X136342857Y-41733333D01*
X136266667Y-41771429D01*
X136190476Y-41771429D01*
X135619048Y-41276190D02*
X135695238Y-41238095D01*
X135847619Y-41238095D01*
X135923810Y-41276190D01*
X135961905Y-41352381D01*
X135961905Y-41657143D01*
X135923810Y-41733333D01*
X135847619Y-41771429D01*
X135695238Y-41771429D01*
X135619048Y-41733333D01*
X135580953Y-41657143D01*
X135580953Y-41580952D01*
X135961905Y-41504762D01*
X134895239Y-41771429D02*
X134895239Y-41123810D01*
X134933334Y-41047619D01*
X134971429Y-41009524D01*
X135047620Y-40971429D01*
X135161905Y-40971429D01*
X135238096Y-41009524D01*
X134895239Y-41276190D02*
X134971429Y-41238095D01*
X135123810Y-41238095D01*
X135200001Y-41276190D01*
X135238096Y-41314286D01*
X135276191Y-41390476D01*
X135276191Y-41619048D01*
X135238096Y-41695238D01*
X135200001Y-41733333D01*
X135123810Y-41771429D01*
X134971429Y-41771429D01*
X134895239Y-41733333D01*
X147904476Y-65474857D02*
X148171143Y-65474857D01*
X148285429Y-65893905D02*
X147904476Y-65893905D01*
X147904476Y-65093905D01*
X148285429Y-65093905D01*
X148628286Y-65474857D02*
X148894953Y-65474857D01*
X149009239Y-65893905D02*
X148628286Y-65893905D01*
X148628286Y-65093905D01*
X149009239Y-65093905D01*
X149352096Y-65893905D02*
X149352096Y-65093905D01*
X149656858Y-65093905D01*
X149733049Y-65132000D01*
X149771144Y-65170095D01*
X149809239Y-65246286D01*
X149809239Y-65360571D01*
X149771144Y-65436762D01*
X149733049Y-65474857D01*
X149656858Y-65512952D01*
X149352096Y-65512952D01*
X150609239Y-65893905D02*
X150342572Y-65512952D01*
X150152096Y-65893905D02*
X150152096Y-65093905D01*
X150456858Y-65093905D01*
X150533049Y-65132000D01*
X150571144Y-65170095D01*
X150609239Y-65246286D01*
X150609239Y-65360571D01*
X150571144Y-65436762D01*
X150533049Y-65474857D01*
X150456858Y-65512952D01*
X150152096Y-65512952D01*
X151104477Y-65093905D02*
X151256858Y-65093905D01*
X151333049Y-65132000D01*
X151409239Y-65208190D01*
X151447334Y-65360571D01*
X151447334Y-65627238D01*
X151409239Y-65779619D01*
X151333049Y-65855810D01*
X151256858Y-65893905D01*
X151104477Y-65893905D01*
X151028287Y-65855810D01*
X150952096Y-65779619D01*
X150914001Y-65627238D01*
X150914001Y-65360571D01*
X150952096Y-65208190D01*
X151028287Y-65132000D01*
X151104477Y-65093905D01*
X151790191Y-65893905D02*
X151790191Y-65093905D01*
X152056858Y-65665333D01*
X152323525Y-65093905D01*
X152323525Y-65893905D01*
X148857048Y-51441333D02*
X149238000Y-51441333D01*
X148780857Y-51669905D02*
X149047524Y-50869905D01*
X149314191Y-51669905D01*
X149466571Y-50869905D02*
X149923714Y-50869905D01*
X149695143Y-51669905D02*
X149695143Y-50869905D01*
X150152286Y-51631810D02*
X150266572Y-51669905D01*
X150457048Y-51669905D01*
X150533238Y-51631810D01*
X150571334Y-51593714D01*
X150609429Y-51517524D01*
X150609429Y-51441333D01*
X150571334Y-51365143D01*
X150533238Y-51327048D01*
X150457048Y-51288952D01*
X150304667Y-51250857D01*
X150228476Y-51212762D01*
X150190381Y-51174667D01*
X150152286Y-51098476D01*
X150152286Y-51022286D01*
X150190381Y-50946095D01*
X150228476Y-50908000D01*
X150304667Y-50869905D01*
X150495143Y-50869905D01*
X150609429Y-50908000D01*
X150952286Y-51669905D02*
X150952286Y-50869905D01*
X150952286Y-51250857D02*
X151409429Y-51250857D01*
X151409429Y-51669905D02*
X151409429Y-50869905D01*
X151752286Y-51441333D02*
X152133238Y-51441333D01*
X151676095Y-51669905D02*
X151942762Y-50869905D01*
X152209429Y-51669905D01*
X152438000Y-50946095D02*
X152476095Y-50908000D01*
X152552286Y-50869905D01*
X152742762Y-50869905D01*
X152818952Y-50908000D01*
X152857048Y-50946095D01*
X152895143Y-51022286D01*
X152895143Y-51098476D01*
X152857048Y-51212762D01*
X152399905Y-51669905D01*
X152895143Y-51669905D01*
X153390381Y-50869905D02*
X153466572Y-50869905D01*
X153542762Y-50908000D01*
X153580857Y-50946095D01*
X153618953Y-51022286D01*
X153657048Y-51174667D01*
X153657048Y-51365143D01*
X153618953Y-51517524D01*
X153580857Y-51593714D01*
X153542762Y-51631810D01*
X153466572Y-51669905D01*
X153390381Y-51669905D01*
X153314191Y-51631810D01*
X153276095Y-51593714D01*
X153238000Y-51517524D01*
X153199905Y-51365143D01*
X153199905Y-51174667D01*
X153238000Y-51022286D01*
X153276095Y-50946095D01*
X153314191Y-50908000D01*
X153390381Y-50869905D01*
X154342762Y-51136571D02*
X154342762Y-51669905D01*
X154152286Y-50831810D02*
X153961810Y-51403238D01*
X154457048Y-51403238D01*
X147323810Y-49161905D02*
X146942857Y-49161905D01*
X146942857Y-48361905D01*
X147590476Y-49161905D02*
X147590476Y-48361905D01*
X147780952Y-48361905D01*
X147895238Y-48400000D01*
X147971429Y-48476190D01*
X148009524Y-48552381D01*
X148047619Y-48704762D01*
X148047619Y-48819048D01*
X148009524Y-48971429D01*
X147971429Y-49047619D01*
X147895238Y-49123810D01*
X147780952Y-49161905D01*
X147590476Y-49161905D01*
X148809524Y-49161905D02*
X148352381Y-49161905D01*
X148580952Y-49161905D02*
X148580952Y-48361905D01*
X148504762Y-48476190D01*
X148428571Y-48552381D01*
X148352381Y-48590476D01*
X149571429Y-49161905D02*
X149114286Y-49161905D01*
X149342857Y-49161905D02*
X149342857Y-48361905D01*
X149266667Y-48476190D01*
X149190476Y-48552381D01*
X149114286Y-48590476D01*
X150333334Y-49161905D02*
X149876191Y-49161905D01*
X150104762Y-49161905D02*
X150104762Y-48361905D01*
X150028572Y-48476190D01*
X149952381Y-48552381D01*
X149876191Y-48590476D01*
X150600001Y-48361905D02*
X151133334Y-48361905D01*
X150790477Y-49161905D01*
X151438096Y-48857143D02*
X152047620Y-48857143D01*
X152352382Y-48361905D02*
X152847620Y-48361905D01*
X152580953Y-48666667D01*
X152695239Y-48666667D01*
X152771429Y-48704762D01*
X152809525Y-48742857D01*
X152847620Y-48819048D01*
X152847620Y-49009524D01*
X152809525Y-49085714D01*
X152771429Y-49123810D01*
X152695239Y-49161905D01*
X152466667Y-49161905D01*
X152390477Y-49123810D01*
X152352382Y-49085714D01*
X153076191Y-48361905D02*
X153342858Y-49161905D01*
X153609525Y-48361905D01*
X153800001Y-48361905D02*
X154295239Y-48361905D01*
X154028572Y-48666667D01*
X154142858Y-48666667D01*
X154219048Y-48704762D01*
X154257144Y-48742857D01*
X154295239Y-48819048D01*
X154295239Y-49009524D01*
X154257144Y-49085714D01*
X154219048Y-49123810D01*
X154142858Y-49161905D01*
X153914286Y-49161905D01*
X153838096Y-49123810D01*
X153800001Y-49085714D01*
D11*
X159124191Y-36061667D02*
X158743239Y-36061667D01*
X159200382Y-35833095D02*
X158933715Y-36633095D01*
X158667048Y-35833095D01*
X158400382Y-35833095D02*
X158400382Y-36366429D01*
X158400382Y-36214048D02*
X158362287Y-36290238D01*
X158324191Y-36328333D01*
X158248001Y-36366429D01*
X158171810Y-36366429D01*
X157562287Y-35833095D02*
X157562287Y-36633095D01*
X157562287Y-35871190D02*
X157638477Y-35833095D01*
X157790858Y-35833095D01*
X157867049Y-35871190D01*
X157905144Y-35909286D01*
X157943239Y-35985476D01*
X157943239Y-36214048D01*
X157905144Y-36290238D01*
X157867049Y-36328333D01*
X157790858Y-36366429D01*
X157638477Y-36366429D01*
X157562287Y-36328333D01*
X156838477Y-36366429D02*
X156838477Y-35833095D01*
X157181334Y-36366429D02*
X157181334Y-35947381D01*
X157143239Y-35871190D01*
X157067048Y-35833095D01*
X156952762Y-35833095D01*
X156876572Y-35871190D01*
X156838477Y-35909286D01*
X156457524Y-35833095D02*
X156457524Y-36366429D01*
X156457524Y-36633095D02*
X156495619Y-36595000D01*
X156457524Y-36556905D01*
X156419429Y-36595000D01*
X156457524Y-36633095D01*
X156457524Y-36556905D01*
X156076572Y-36366429D02*
X156076572Y-35833095D01*
X156076572Y-36290238D02*
X156038477Y-36328333D01*
X155962286Y-36366429D01*
X155848000Y-36366429D01*
X155771810Y-36328333D01*
X155733715Y-36252143D01*
X155733715Y-35833095D01*
X155238476Y-35833095D02*
X155314667Y-35871190D01*
X155352762Y-35909286D01*
X155390857Y-35985476D01*
X155390857Y-36214048D01*
X155352762Y-36290238D01*
X155314667Y-36328333D01*
X155238476Y-36366429D01*
X155124190Y-36366429D01*
X155048000Y-36328333D01*
X155009905Y-36290238D01*
X154971809Y-36214048D01*
X154971809Y-35985476D01*
X155009905Y-35909286D01*
X155048000Y-35871190D01*
X155124190Y-35833095D01*
X155238476Y-35833095D01*
X154133714Y-36633095D02*
X153867047Y-35833095D01*
X153600380Y-36633095D01*
X153333714Y-35833095D02*
X153333714Y-36366429D01*
X153333714Y-36214048D02*
X153295619Y-36290238D01*
X153257523Y-36328333D01*
X153181333Y-36366429D01*
X153105142Y-36366429D01*
X152533714Y-35871190D02*
X152609904Y-35833095D01*
X152762285Y-35833095D01*
X152838476Y-35871190D01*
X152876571Y-35947381D01*
X152876571Y-36252143D01*
X152838476Y-36328333D01*
X152762285Y-36366429D01*
X152609904Y-36366429D01*
X152533714Y-36328333D01*
X152495619Y-36252143D01*
X152495619Y-36175952D01*
X152876571Y-36099762D01*
X151809905Y-36366429D02*
X151809905Y-35718810D01*
X151848000Y-35642619D01*
X151886095Y-35604524D01*
X151962286Y-35566429D01*
X152076571Y-35566429D01*
X152152762Y-35604524D01*
X151809905Y-35871190D02*
X151886095Y-35833095D01*
X152038476Y-35833095D01*
X152114667Y-35871190D01*
X152152762Y-35909286D01*
X152190857Y-35985476D01*
X152190857Y-36214048D01*
X152152762Y-36290238D01*
X152114667Y-36328333D01*
X152038476Y-36366429D01*
X151886095Y-36366429D01*
X151809905Y-36328333D01*
X158895619Y-34258333D02*
X158933715Y-34296429D01*
X159009905Y-34410714D01*
X159048000Y-34486905D01*
X159086096Y-34601190D01*
X159124191Y-34791667D01*
X159124191Y-34944048D01*
X159086096Y-35134524D01*
X159048000Y-35248810D01*
X159009905Y-35325000D01*
X158933715Y-35439286D01*
X158895619Y-35477381D01*
X158590858Y-35096429D02*
X158590858Y-34563095D01*
X158590858Y-35020238D02*
X158552763Y-35058333D01*
X158476572Y-35096429D01*
X158362286Y-35096429D01*
X158286096Y-35058333D01*
X158248001Y-34982143D01*
X158248001Y-34563095D01*
X157752762Y-34563095D02*
X157828953Y-34601190D01*
X157867048Y-34639286D01*
X157905143Y-34715476D01*
X157905143Y-34944048D01*
X157867048Y-35020238D01*
X157828953Y-35058333D01*
X157752762Y-35096429D01*
X157638476Y-35096429D01*
X157562286Y-35058333D01*
X157524191Y-35020238D01*
X157486095Y-34944048D01*
X157486095Y-34715476D01*
X157524191Y-34639286D01*
X157562286Y-34601190D01*
X157638476Y-34563095D01*
X157752762Y-34563095D01*
X156152761Y-34563095D02*
X156533714Y-34563095D01*
X156533714Y-35363095D01*
X155886095Y-34563095D02*
X155886095Y-35363095D01*
X155619428Y-34791667D01*
X155352761Y-35363095D01*
X155352761Y-34563095D01*
X154552761Y-34563095D02*
X155009904Y-34563095D01*
X154781333Y-34563095D02*
X154781333Y-35363095D01*
X154857523Y-35248810D01*
X154933714Y-35172619D01*
X155009904Y-35134524D01*
X153790856Y-34563095D02*
X154247999Y-34563095D01*
X154019428Y-34563095D02*
X154019428Y-35363095D01*
X154095618Y-35248810D01*
X154171809Y-35172619D01*
X154247999Y-35134524D01*
X153028951Y-34563095D02*
X153486094Y-34563095D01*
X153257523Y-34563095D02*
X153257523Y-35363095D01*
X153333713Y-35248810D01*
X153409904Y-35172619D01*
X153486094Y-35134524D01*
X152762284Y-35363095D02*
X152228951Y-35363095D01*
X152571808Y-34563095D01*
X152000379Y-34258333D02*
X151962284Y-34296429D01*
X151886094Y-34410714D01*
X151847998Y-34486905D01*
X151809903Y-34601190D01*
X151771808Y-34791667D01*
X151771808Y-34944048D01*
X151809903Y-35134524D01*
X151847998Y-35248810D01*
X151886094Y-35325000D01*
X151962284Y-35439286D01*
X152000379Y-35477381D01*
X121608857Y-57251524D02*
X121608857Y-57518191D01*
X122027905Y-57518191D02*
X121227905Y-57518191D01*
X121227905Y-57137238D01*
X122027905Y-56489620D02*
X121608857Y-56489620D01*
X121532667Y-56527715D01*
X121494571Y-56603905D01*
X121494571Y-56756286D01*
X121532667Y-56832477D01*
X121989810Y-56489620D02*
X122027905Y-56565810D01*
X122027905Y-56756286D01*
X121989810Y-56832477D01*
X121913619Y-56870572D01*
X121837429Y-56870572D01*
X121761238Y-56832477D01*
X121723143Y-56756286D01*
X121723143Y-56565810D01*
X121685048Y-56489620D01*
X121494571Y-56108667D02*
X122027905Y-56108667D01*
X121570762Y-56108667D02*
X121532667Y-56070572D01*
X121494571Y-55994381D01*
X121494571Y-55880095D01*
X121532667Y-55803905D01*
X121608857Y-55765810D01*
X122027905Y-55765810D01*
X125050571Y-57803905D02*
X125583905Y-57803905D01*
X124745810Y-57994381D02*
X125317238Y-58184857D01*
X125317238Y-57689619D01*
X125583905Y-57384857D02*
X124783905Y-57384857D01*
X124783905Y-57080095D01*
X124822000Y-57003904D01*
X124860095Y-56965809D01*
X124936286Y-56927714D01*
X125050571Y-56927714D01*
X125126762Y-56965809D01*
X125164857Y-57003904D01*
X125202952Y-57080095D01*
X125202952Y-57384857D01*
X124783905Y-56661047D02*
X125583905Y-56470571D01*
X125012476Y-56318190D01*
X125583905Y-56165809D01*
X124783905Y-55975333D01*
X125583905Y-55670571D02*
X124783905Y-55670571D01*
X125355333Y-55403904D01*
X124783905Y-55137237D01*
X125583905Y-55137237D01*
X149580191Y-36633095D02*
X149313524Y-35833095D01*
X149046857Y-36633095D01*
X148323048Y-35909286D02*
X148361143Y-35871190D01*
X148475429Y-35833095D01*
X148551619Y-35833095D01*
X148665905Y-35871190D01*
X148742096Y-35947381D01*
X148780191Y-36023571D01*
X148818286Y-36175952D01*
X148818286Y-36290238D01*
X148780191Y-36442619D01*
X148742096Y-36518810D01*
X148665905Y-36595000D01*
X148551619Y-36633095D01*
X148475429Y-36633095D01*
X148361143Y-36595000D01*
X148323048Y-36556905D01*
X147523048Y-35909286D02*
X147561143Y-35871190D01*
X147675429Y-35833095D01*
X147751619Y-35833095D01*
X147865905Y-35871190D01*
X147942096Y-35947381D01*
X147980191Y-36023571D01*
X148018286Y-36175952D01*
X148018286Y-36290238D01*
X147980191Y-36442619D01*
X147942096Y-36518810D01*
X147865905Y-36595000D01*
X147751619Y-36633095D01*
X147675429Y-36633095D01*
X147561143Y-36595000D01*
X147523048Y-36556905D01*
X145961143Y-35871190D02*
X146570667Y-35871190D01*
X145961143Y-36023571D02*
X146570667Y-36252143D01*
X145961143Y-36480714D01*
X144551619Y-35833095D02*
X145008762Y-35833095D01*
X144780191Y-35833095D02*
X144780191Y-36633095D01*
X144856381Y-36518810D01*
X144932572Y-36442619D01*
X145008762Y-36404524D01*
X144246857Y-36556905D02*
X144208762Y-36595000D01*
X144132571Y-36633095D01*
X143942095Y-36633095D01*
X143865905Y-36595000D01*
X143827809Y-36556905D01*
X143789714Y-36480714D01*
X143789714Y-36404524D01*
X143827809Y-36290238D01*
X144284952Y-35833095D01*
X143789714Y-35833095D01*
X143561143Y-36633095D02*
X143294476Y-35833095D01*
X143027809Y-36633095D01*
X148742095Y-34258333D02*
X148780191Y-34296429D01*
X148856381Y-34410714D01*
X148894476Y-34486905D01*
X148932572Y-34601190D01*
X148970667Y-34791667D01*
X148970667Y-34944048D01*
X148932572Y-35134524D01*
X148894476Y-35248810D01*
X148856381Y-35325000D01*
X148780191Y-35439286D01*
X148742095Y-35477381D01*
X148437334Y-35096429D02*
X148437334Y-34563095D01*
X148437334Y-35020238D02*
X148399239Y-35058333D01*
X148323048Y-35096429D01*
X148208762Y-35096429D01*
X148132572Y-35058333D01*
X148094477Y-34982143D01*
X148094477Y-34563095D01*
X147599238Y-34563095D02*
X147675429Y-34601190D01*
X147713524Y-34639286D01*
X147751619Y-34715476D01*
X147751619Y-34944048D01*
X147713524Y-35020238D01*
X147675429Y-35058333D01*
X147599238Y-35096429D01*
X147484952Y-35096429D01*
X147408762Y-35058333D01*
X147370667Y-35020238D01*
X147332571Y-34944048D01*
X147332571Y-34715476D01*
X147370667Y-34639286D01*
X147408762Y-34601190D01*
X147484952Y-34563095D01*
X147599238Y-34563095D01*
X146494476Y-35363095D02*
X146227809Y-34563095D01*
X145961142Y-35363095D01*
X145694476Y-34563095D02*
X145694476Y-35096429D01*
X145694476Y-34944048D02*
X145656381Y-35020238D01*
X145618285Y-35058333D01*
X145542095Y-35096429D01*
X145465904Y-35096429D01*
X144894476Y-34601190D02*
X144970666Y-34563095D01*
X145123047Y-34563095D01*
X145199238Y-34601190D01*
X145237333Y-34677381D01*
X145237333Y-34982143D01*
X145199238Y-35058333D01*
X145123047Y-35096429D01*
X144970666Y-35096429D01*
X144894476Y-35058333D01*
X144856381Y-34982143D01*
X144856381Y-34905952D01*
X145237333Y-34829762D01*
X144170667Y-35096429D02*
X144170667Y-34448810D01*
X144208762Y-34372619D01*
X144246857Y-34334524D01*
X144323048Y-34296429D01*
X144437333Y-34296429D01*
X144513524Y-34334524D01*
X144170667Y-34601190D02*
X144246857Y-34563095D01*
X144399238Y-34563095D01*
X144475429Y-34601190D01*
X144513524Y-34639286D01*
X144551619Y-34715476D01*
X144551619Y-34944048D01*
X144513524Y-35020238D01*
X144475429Y-35058333D01*
X144399238Y-35096429D01*
X144246857Y-35096429D01*
X144170667Y-35058333D01*
X143865904Y-34258333D02*
X143827809Y-34296429D01*
X143751619Y-34410714D01*
X143713523Y-34486905D01*
X143675428Y-34601190D01*
X143637333Y-34791667D01*
X143637333Y-34944048D01*
X143675428Y-35134524D01*
X143713523Y-35248810D01*
X143751619Y-35325000D01*
X143827809Y-35439286D01*
X143865904Y-35477381D01*
X127196857Y-62839524D02*
X127196857Y-63106191D01*
X127615905Y-63106191D02*
X126815905Y-63106191D01*
X126815905Y-62725238D01*
X127615905Y-62077620D02*
X127196857Y-62077620D01*
X127120667Y-62115715D01*
X127082571Y-62191905D01*
X127082571Y-62344286D01*
X127120667Y-62420477D01*
X127577810Y-62077620D02*
X127615905Y-62153810D01*
X127615905Y-62344286D01*
X127577810Y-62420477D01*
X127501619Y-62458572D01*
X127425429Y-62458572D01*
X127349238Y-62420477D01*
X127311143Y-62344286D01*
X127311143Y-62153810D01*
X127273048Y-62077620D01*
X127082571Y-61696667D02*
X127615905Y-61696667D01*
X127158762Y-61696667D02*
X127120667Y-61658572D01*
X127082571Y-61582381D01*
X127082571Y-61468095D01*
X127120667Y-61391905D01*
X127196857Y-61353810D01*
X127615905Y-61353810D01*
X127615905Y-56648285D02*
X127615905Y-57029238D01*
X126815905Y-57029238D01*
X127196857Y-56381619D02*
X127196857Y-56114952D01*
X127615905Y-56000666D02*
X127615905Y-56381619D01*
X126815905Y-56381619D01*
X126815905Y-56000666D01*
X127615905Y-55657809D02*
X126815905Y-55657809D01*
X126815905Y-55467333D01*
X126854000Y-55353047D01*
X126930190Y-55276856D01*
X127006381Y-55238761D01*
X127158762Y-55200666D01*
X127273048Y-55200666D01*
X127425429Y-55238761D01*
X127501619Y-55276856D01*
X127577810Y-55353047D01*
X127615905Y-55467333D01*
X127615905Y-55657809D01*
X139361905Y-50819048D02*
X140161905Y-50552381D01*
X139361905Y-50285714D01*
X140161905Y-49904762D02*
X140123810Y-49980953D01*
X140085714Y-50019048D01*
X140009524Y-50057143D01*
X139780952Y-50057143D01*
X139704762Y-50019048D01*
X139666667Y-49980953D01*
X139628571Y-49904762D01*
X139628571Y-49790476D01*
X139666667Y-49714286D01*
X139704762Y-49676191D01*
X139780952Y-49638095D01*
X140009524Y-49638095D01*
X140085714Y-49676191D01*
X140123810Y-49714286D01*
X140161905Y-49790476D01*
X140161905Y-49904762D01*
X139628571Y-48952381D02*
X140161905Y-48952381D01*
X139628571Y-49295238D02*
X140047619Y-49295238D01*
X140123810Y-49257143D01*
X140161905Y-49180952D01*
X140161905Y-49066666D01*
X140123810Y-48990476D01*
X140085714Y-48952381D01*
X139628571Y-48685714D02*
X139628571Y-48380952D01*
X139361905Y-48571428D02*
X140047619Y-48571428D01*
X140123810Y-48533333D01*
X140161905Y-48457142D01*
X140161905Y-48380952D01*
X139400000Y-46809523D02*
X139361905Y-46885714D01*
X139361905Y-46999999D01*
X139400000Y-47114285D01*
X139476190Y-47190476D01*
X139552381Y-47228571D01*
X139704762Y-47266666D01*
X139819048Y-47266666D01*
X139971429Y-47228571D01*
X140047619Y-47190476D01*
X140123810Y-47114285D01*
X140161905Y-46999999D01*
X140161905Y-46923809D01*
X140123810Y-46809523D01*
X140085714Y-46771428D01*
X139819048Y-46771428D01*
X139819048Y-46923809D01*
X140161905Y-46428571D02*
X139361905Y-46428571D01*
X140161905Y-45971428D01*
X139361905Y-45971428D01*
X140161905Y-45590476D02*
X139361905Y-45590476D01*
X139361905Y-45400000D01*
X139400000Y-45285714D01*
X139476190Y-45209523D01*
X139552381Y-45171428D01*
X139704762Y-45133333D01*
X139819048Y-45133333D01*
X139971429Y-45171428D01*
X140047619Y-45209523D01*
X140123810Y-45285714D01*
X140161905Y-45400000D01*
X140161905Y-45590476D01*
X139361905Y-43619048D02*
X140161905Y-43352381D01*
X139361905Y-43085714D01*
X140161905Y-42819048D02*
X139628571Y-42819048D01*
X139361905Y-42819048D02*
X139400000Y-42857143D01*
X139438095Y-42819048D01*
X139400000Y-42780953D01*
X139361905Y-42819048D01*
X139438095Y-42819048D01*
X139628571Y-42438096D02*
X140161905Y-42438096D01*
X139704762Y-42438096D02*
X139666667Y-42400001D01*
X139628571Y-42323810D01*
X139628571Y-42209524D01*
X139666667Y-42133334D01*
X139742857Y-42095239D01*
X140161905Y-42095239D01*
X166947810Y-50736381D02*
X166985905Y-50622095D01*
X166985905Y-50431619D01*
X166947810Y-50355429D01*
X166909714Y-50317333D01*
X166833524Y-50279238D01*
X166757333Y-50279238D01*
X166681143Y-50317333D01*
X166643048Y-50355429D01*
X166604952Y-50431619D01*
X166566857Y-50584000D01*
X166528762Y-50660191D01*
X166490667Y-50698286D01*
X166414476Y-50736381D01*
X166338286Y-50736381D01*
X166262095Y-50698286D01*
X166224000Y-50660191D01*
X166185905Y-50584000D01*
X166185905Y-50393524D01*
X166224000Y-50279238D01*
X166909714Y-49479238D02*
X166947810Y-49517333D01*
X166985905Y-49631619D01*
X166985905Y-49707809D01*
X166947810Y-49822095D01*
X166871619Y-49898286D01*
X166795429Y-49936381D01*
X166643048Y-49974476D01*
X166528762Y-49974476D01*
X166376381Y-49936381D01*
X166300190Y-49898286D01*
X166224000Y-49822095D01*
X166185905Y-49707809D01*
X166185905Y-49631619D01*
X166224000Y-49517333D01*
X166262095Y-49479238D01*
X166985905Y-48755428D02*
X166985905Y-49136381D01*
X166185905Y-49136381D01*
X166947810Y-48215428D02*
X166985905Y-48101142D01*
X166985905Y-47910666D01*
X166947810Y-47834476D01*
X166909714Y-47796380D01*
X166833524Y-47758285D01*
X166757333Y-47758285D01*
X166681143Y-47796380D01*
X166643048Y-47834476D01*
X166604952Y-47910666D01*
X166566857Y-48063047D01*
X166528762Y-48139238D01*
X166490667Y-48177333D01*
X166414476Y-48215428D01*
X166338286Y-48215428D01*
X166262095Y-48177333D01*
X166224000Y-48139238D01*
X166185905Y-48063047D01*
X166185905Y-47872571D01*
X166224000Y-47758285D01*
X166985905Y-47415428D02*
X166185905Y-47415428D01*
X166185905Y-47224952D01*
X166224000Y-47110666D01*
X166300190Y-47034475D01*
X166376381Y-46996380D01*
X166528762Y-46958285D01*
X166643048Y-46958285D01*
X166795429Y-46996380D01*
X166871619Y-47034475D01*
X166947810Y-47110666D01*
X166985905Y-47224952D01*
X166985905Y-47415428D01*
X166757333Y-46653523D02*
X166757333Y-46272571D01*
X166985905Y-46729714D02*
X166185905Y-46463047D01*
X166985905Y-46196380D01*
X166224000Y-45059523D02*
X166185905Y-45135714D01*
X166185905Y-45249999D01*
X166224000Y-45364285D01*
X166300190Y-45440476D01*
X166376381Y-45478571D01*
X166528762Y-45516666D01*
X166643048Y-45516666D01*
X166795429Y-45478571D01*
X166871619Y-45440476D01*
X166947810Y-45364285D01*
X166985905Y-45249999D01*
X166985905Y-45173809D01*
X166947810Y-45059523D01*
X166909714Y-45021428D01*
X166643048Y-45021428D01*
X166643048Y-45173809D01*
X166985905Y-44678571D02*
X166185905Y-44678571D01*
X166985905Y-44221428D01*
X166185905Y-44221428D01*
X166985905Y-43840476D02*
X166185905Y-43840476D01*
X166185905Y-43650000D01*
X166224000Y-43535714D01*
X166300190Y-43459523D01*
X166376381Y-43421428D01*
X166528762Y-43383333D01*
X166643048Y-43383333D01*
X166795429Y-43421428D01*
X166871619Y-43459523D01*
X166947810Y-43535714D01*
X166985905Y-43650000D01*
X166985905Y-43840476D01*
X166185905Y-42836952D02*
X166185905Y-42341714D01*
X166490667Y-42608381D01*
X166490667Y-42494095D01*
X166528762Y-42417905D01*
X166566857Y-42379809D01*
X166643048Y-42341714D01*
X166833524Y-42341714D01*
X166909714Y-42379809D01*
X166947810Y-42417905D01*
X166985905Y-42494095D01*
X166985905Y-42722667D01*
X166947810Y-42798857D01*
X166909714Y-42836952D01*
X166909714Y-41998857D02*
X166947810Y-41960762D01*
X166985905Y-41998857D01*
X166947810Y-42036952D01*
X166909714Y-41998857D01*
X166985905Y-41998857D01*
X166185905Y-41694095D02*
X166185905Y-41198857D01*
X166490667Y-41465524D01*
X166490667Y-41351238D01*
X166528762Y-41275048D01*
X166566857Y-41236952D01*
X166643048Y-41198857D01*
X166833524Y-41198857D01*
X166909714Y-41236952D01*
X166947810Y-41275048D01*
X166985905Y-41351238D01*
X166985905Y-41579810D01*
X166947810Y-41656000D01*
X166909714Y-41694095D01*
X166185905Y-40970286D02*
X166985905Y-40703619D01*
X166185905Y-40436952D01*
X129940190Y-53447905D02*
X129940190Y-52647905D01*
X130244952Y-52647905D01*
X130321143Y-52686000D01*
X130359238Y-52724095D01*
X130397333Y-52800286D01*
X130397333Y-52914571D01*
X130359238Y-52990762D01*
X130321143Y-53028857D01*
X130244952Y-53066952D01*
X129940190Y-53066952D01*
X130664000Y-52647905D02*
X130854476Y-53447905D01*
X131006857Y-52876476D01*
X131159238Y-53447905D01*
X131349714Y-52647905D01*
X131654476Y-53447905D02*
X131654476Y-52647905D01*
X131921143Y-53219333D01*
X132187810Y-52647905D01*
X132187810Y-53447905D01*
X133502477Y-72752000D02*
X133426286Y-72713905D01*
X133312001Y-72713905D01*
X133197715Y-72752000D01*
X133121524Y-72828190D01*
X133083429Y-72904381D01*
X133045334Y-73056762D01*
X133045334Y-73171048D01*
X133083429Y-73323429D01*
X133121524Y-73399619D01*
X133197715Y-73475810D01*
X133312001Y-73513905D01*
X133388191Y-73513905D01*
X133502477Y-73475810D01*
X133540572Y-73437714D01*
X133540572Y-73171048D01*
X133388191Y-73171048D01*
X133883429Y-73513905D02*
X133883429Y-72713905D01*
X134340572Y-73513905D01*
X134340572Y-72713905D01*
X134721524Y-73513905D02*
X134721524Y-72713905D01*
X134912000Y-72713905D01*
X135026286Y-72752000D01*
X135102477Y-72828190D01*
X135140572Y-72904381D01*
X135178667Y-73056762D01*
X135178667Y-73171048D01*
X135140572Y-73323429D01*
X135102477Y-73399619D01*
X135026286Y-73475810D01*
X134912000Y-73513905D01*
X134721524Y-73513905D01*
X130460857Y-73513905D02*
X130460857Y-72713905D01*
X130651333Y-72713905D01*
X130765619Y-72752000D01*
X130841810Y-72828190D01*
X130879905Y-72904381D01*
X130918000Y-73056762D01*
X130918000Y-73171048D01*
X130879905Y-73323429D01*
X130841810Y-73399619D01*
X130765619Y-73475810D01*
X130651333Y-73513905D01*
X130460857Y-73513905D01*
X131222762Y-73285333D02*
X131603714Y-73285333D01*
X131146571Y-73513905D02*
X131413238Y-72713905D01*
X131679905Y-73513905D01*
X131832285Y-72713905D02*
X132289428Y-72713905D01*
X132060857Y-73513905D02*
X132060857Y-72713905D01*
X127343048Y-72713905D02*
X127838286Y-72713905D01*
X127571619Y-73018667D01*
X127685905Y-73018667D01*
X127762095Y-73056762D01*
X127800191Y-73094857D01*
X127838286Y-73171048D01*
X127838286Y-73361524D01*
X127800191Y-73437714D01*
X127762095Y-73475810D01*
X127685905Y-73513905D01*
X127457333Y-73513905D01*
X127381143Y-73475810D01*
X127343048Y-73437714D01*
X128181143Y-73437714D02*
X128219238Y-73475810D01*
X128181143Y-73513905D01*
X128143048Y-73475810D01*
X128181143Y-73437714D01*
X128181143Y-73513905D01*
X128485905Y-72713905D02*
X128981143Y-72713905D01*
X128714476Y-73018667D01*
X128828762Y-73018667D01*
X128904952Y-73056762D01*
X128943048Y-73094857D01*
X128981143Y-73171048D01*
X128981143Y-73361524D01*
X128943048Y-73437714D01*
X128904952Y-73475810D01*
X128828762Y-73513905D01*
X128600190Y-73513905D01*
X128524000Y-73475810D01*
X128485905Y-73437714D01*
X129209714Y-72713905D02*
X129476381Y-73513905D01*
X129743048Y-72713905D01*
D12*
X131361904Y-36900000D02*
X131457142Y-36947619D01*
X131599999Y-36947619D01*
X131742857Y-36900000D01*
X131838095Y-36804762D01*
X131885714Y-36709524D01*
X131933333Y-36519048D01*
X131933333Y-36376190D01*
X131885714Y-36185714D01*
X131838095Y-36090476D01*
X131742857Y-35995238D01*
X131599999Y-35947619D01*
X131504761Y-35947619D01*
X131361904Y-35995238D01*
X131314285Y-36042857D01*
X131314285Y-36376190D01*
X131504761Y-36376190D01*
X130885714Y-35947619D02*
X130885714Y-36947619D01*
X130314285Y-35947619D01*
X130314285Y-36947619D01*
X129838095Y-35947619D02*
X129838095Y-36947619D01*
X129600000Y-36947619D01*
X129457142Y-36900000D01*
X129361904Y-36804762D01*
X129314285Y-36709524D01*
X129266666Y-36519048D01*
X129266666Y-36376190D01*
X129314285Y-36185714D01*
X129361904Y-36090476D01*
X129457142Y-35995238D01*
X129600000Y-35947619D01*
X129838095Y-35947619D01*
X124042857Y-35947619D02*
X124519048Y-35947619D01*
X124519048Y-36947619D01*
X123709524Y-36471429D02*
X123376190Y-36471429D01*
X123233333Y-35947619D02*
X123709524Y-35947619D01*
X123709524Y-36947619D01*
X123233333Y-36947619D01*
X122804762Y-35947619D02*
X122804762Y-36947619D01*
X122566667Y-36947619D01*
X122423809Y-36900000D01*
X122328571Y-36804762D01*
X122280952Y-36709524D01*
X122233333Y-36519048D01*
X122233333Y-36376190D01*
X122280952Y-36185714D01*
X122328571Y-36090476D01*
X122423809Y-35995238D01*
X122566667Y-35947619D01*
X122804762Y-35947619D01*
X127752381Y-36947619D02*
X127419048Y-35947619D01*
X127085714Y-36947619D01*
X126752381Y-36328571D02*
X125990476Y-36328571D01*
X126371428Y-35947619D02*
X126371428Y-36709524D01*
D11*
X127241429Y-53409810D02*
X127355715Y-53447905D01*
X127546191Y-53447905D01*
X127622381Y-53409810D01*
X127660477Y-53371714D01*
X127698572Y-53295524D01*
X127698572Y-53219333D01*
X127660477Y-53143143D01*
X127622381Y-53105048D01*
X127546191Y-53066952D01*
X127393810Y-53028857D01*
X127317619Y-52990762D01*
X127279524Y-52952667D01*
X127241429Y-52876476D01*
X127241429Y-52800286D01*
X127279524Y-52724095D01*
X127317619Y-52686000D01*
X127393810Y-52647905D01*
X127584286Y-52647905D01*
X127698572Y-52686000D01*
X128041429Y-53447905D02*
X128041429Y-52647905D01*
X128346191Y-52647905D01*
X128422382Y-52686000D01*
X128460477Y-52724095D01*
X128498572Y-52800286D01*
X128498572Y-52914571D01*
X128460477Y-52990762D01*
X128422382Y-53028857D01*
X128346191Y-53066952D01*
X128041429Y-53066952D01*
X128841429Y-53447905D02*
X128841429Y-52647905D01*
X129031905Y-52647905D01*
X129146191Y-52686000D01*
X129222382Y-52762190D01*
X129260477Y-52838381D01*
X129298572Y-52990762D01*
X129298572Y-53105048D01*
X129260477Y-53257429D01*
X129222382Y-53333619D01*
X129146191Y-53409810D01*
X129031905Y-53447905D01*
X128841429Y-53447905D01*
X125234762Y-53447905D02*
X124777619Y-53447905D01*
X125006190Y-53447905D02*
X125006190Y-52647905D01*
X124930000Y-52762190D01*
X124853809Y-52838381D01*
X124777619Y-52876476D01*
X125539524Y-52724095D02*
X125577619Y-52686000D01*
X125653810Y-52647905D01*
X125844286Y-52647905D01*
X125920476Y-52686000D01*
X125958572Y-52724095D01*
X125996667Y-52800286D01*
X125996667Y-52876476D01*
X125958572Y-52990762D01*
X125501429Y-53447905D01*
X125996667Y-53447905D01*
X126225238Y-52647905D02*
X126491905Y-53447905D01*
X126758572Y-52647905D01*
X122326477Y-52686000D02*
X122250286Y-52647905D01*
X122136001Y-52647905D01*
X122021715Y-52686000D01*
X121945524Y-52762190D01*
X121907429Y-52838381D01*
X121869334Y-52990762D01*
X121869334Y-53105048D01*
X121907429Y-53257429D01*
X121945524Y-53333619D01*
X122021715Y-53409810D01*
X122136001Y-53447905D01*
X122212191Y-53447905D01*
X122326477Y-53409810D01*
X122364572Y-53371714D01*
X122364572Y-53105048D01*
X122212191Y-53105048D01*
X122707429Y-53447905D02*
X122707429Y-52647905D01*
X123164572Y-53447905D01*
X123164572Y-52647905D01*
X123545524Y-53447905D02*
X123545524Y-52647905D01*
X123736000Y-52647905D01*
X123850286Y-52686000D01*
X123926477Y-52762190D01*
X123964572Y-52838381D01*
X124002667Y-52990762D01*
X124002667Y-53105048D01*
X123964572Y-53257429D01*
X123926477Y-53333619D01*
X123850286Y-53409810D01*
X123736000Y-53447905D01*
X123545524Y-53447905D01*
X141978000Y-71696000D02*
X160012000Y-71696000D01*
X160012000Y-38930000D02*
X141978000Y-38930000D01*
X141978000Y-71696000D02*
X141978000Y-38930000D01*
X160012000Y-38930000D02*
X160012000Y-71696000D01*
X166224000Y-37338000D02*
G75*
G03X166224000Y-37338000I-2286000J0D01*
G01*
X141224000Y-37338000D02*
G75*
G03X141224000Y-37338000I-2286000J0D01*
G01*
X126492000Y-58039000D02*
X128397000Y-58039000D01*
X130937000Y-58039000D02*
X130175000Y-58039000D01*
X133350000Y-58039000D02*
X133477000Y-58039000D01*
X133350000Y-58039000D02*
X132715000Y-58039000D01*
X137160000Y-58039000D02*
X135382000Y-58039000D01*
X137160000Y-54356000D02*
X135509000Y-54356000D01*
X132842000Y-54229000D02*
X133477000Y-54229000D01*
X130302000Y-54229000D02*
X130937000Y-54229000D01*
X126492000Y-54356000D02*
X128143000Y-54356000D01*
X133350000Y-59182000D02*
X133350000Y-58039000D01*
X130302000Y-59182000D02*
X130302000Y-58039000D01*
X126492000Y-58039000D02*
X126492000Y-54356000D01*
X137160000Y-54356000D02*
X137160000Y-58039000D01*
X126492000Y-59182000D02*
X126492000Y-58039000D01*
X137160000Y-58039000D02*
X137160000Y-59182000D01*
X131826000Y-59182000D02*
X137160000Y-59182000D01*
X131826000Y-59182000D02*
X126492000Y-59182000D01*
X126492000Y-64135000D02*
X128397000Y-64135000D01*
X130937000Y-64135000D02*
X130175000Y-64135000D01*
X133350000Y-64135000D02*
X133477000Y-64135000D01*
X133350000Y-64135000D02*
X132715000Y-64135000D01*
X137160000Y-64135000D02*
X135382000Y-64135000D01*
X137160000Y-60452000D02*
X135509000Y-60452000D01*
X132842000Y-60325000D02*
X133477000Y-60325000D01*
X130302000Y-60325000D02*
X130937000Y-60325000D01*
X126492000Y-60452000D02*
X128143000Y-60452000D01*
X133350000Y-65278000D02*
X133350000Y-64135000D01*
X130302000Y-65278000D02*
X130302000Y-64135000D01*
X126492000Y-64135000D02*
X126492000Y-60452000D01*
X137160000Y-60452000D02*
X137160000Y-64135000D01*
X126492000Y-65278000D02*
X126492000Y-64135000D01*
X137160000Y-64135000D02*
X137160000Y-65278000D01*
X131826000Y-65278000D02*
X137160000Y-65278000D01*
X131826000Y-65278000D02*
X126492000Y-65278000D01*
X137795000Y-51562000D02*
X137795000Y-49657000D01*
X137795000Y-47117000D02*
X137795000Y-47879000D01*
X137795000Y-44704000D02*
X137795000Y-44577000D01*
X137795000Y-44704000D02*
X137795000Y-45339000D01*
X137795000Y-40894000D02*
X137795000Y-42672000D01*
X134112000Y-40894000D02*
X134112000Y-42545000D01*
X133985000Y-45212000D02*
X133985000Y-44577000D01*
X133985000Y-47752000D02*
X133985000Y-47117000D01*
X134112000Y-51562000D02*
X134112000Y-49911000D01*
X138938000Y-44704000D02*
X137795000Y-44704000D01*
X138938000Y-47752000D02*
X137795000Y-47752000D01*
X137795000Y-51562000D02*
X134112000Y-51562000D01*
X134112000Y-40894000D02*
X137795000Y-40894000D01*
X138938000Y-51562000D02*
X137795000Y-51562000D01*
X137795000Y-40894000D02*
X138938000Y-40894000D01*
X138938000Y-46228000D02*
X138938000Y-40894000D01*
X138938000Y-46228000D02*
X138938000Y-51562000D01*
X125906000Y-70788000D02*
X125906000Y-67388000D01*
X125903056Y-70785056D02*
G75*
G02X121806000Y-69088000I-1697056J1697056D01*
G01*
X125903056Y-67390944D02*
G75*
G03X121806000Y-69088000I-1697056J-1697056D01*
G01*
X163330000Y-54698000D02*
X164330000Y-54698000D01*
X164330000Y-52998000D02*
X163330000Y-52998000D01*
X140575000Y-56296000D02*
X140575000Y-57496000D01*
X138825000Y-57496000D02*
X138825000Y-56296000D01*
X138825000Y-63592000D02*
X138825000Y-62392000D01*
X140575000Y-62392000D02*
X140575000Y-63592000D01*
X147990000Y-66181000D02*
X149190000Y-66181000D01*
X149190000Y-67931000D02*
X147990000Y-67931000D01*
X141224000Y-70104000D02*
G75*
G03X141224000Y-70104000I-2286000J0D01*
G01*
X166224000Y-70104000D02*
G75*
G03X166224000Y-70104000I-2286000J0D01*
G01*
D13*
X124333000Y-57785000D02*
X124333000Y-54991000D01*
X122555000Y-57785000D02*
X122555000Y-54991000D01*
X122555000Y-54991000D02*
X124333000Y-54991000D01*
X124333000Y-57785000D02*
X122555000Y-57785000D01*
X144907000Y-38735000D02*
X147701000Y-38735000D01*
X144907000Y-36957000D02*
X147701000Y-36957000D01*
X147701000Y-36957000D02*
X147701000Y-38735000D01*
X144907000Y-38735000D02*
X144907000Y-36957000D01*
X157226000Y-36957000D02*
X154432000Y-36957000D01*
X157226000Y-38735000D02*
X154432000Y-38735000D01*
X154432000Y-38735000D02*
X154432000Y-36957000D01*
X157226000Y-36957000D02*
X157226000Y-38735000D01*
D11*
X154805000Y-66206000D02*
X153805000Y-66206000D01*
X153805000Y-67906000D02*
X154805000Y-67906000D01*
X152138000Y-55919000D02*
X151138000Y-55919000D01*
X151138000Y-57619000D02*
X152138000Y-57619000D01*
X124319000Y-62392000D02*
X124319000Y-63592000D01*
X122569000Y-63592000D02*
X122569000Y-62392000D01*
X147687000Y-52740000D02*
X147687000Y-53940000D01*
X145937000Y-53940000D02*
X145937000Y-52740000D01*
X151460200Y-51967180D02*
X152161240Y-51967180D01*
X152161240Y-51967180D02*
X152161240Y-52216100D01*
X152161240Y-54766160D02*
X152161240Y-54966820D01*
X152161240Y-54966820D02*
X151460200Y-54966820D01*
X147925000Y-59625000D02*
X147925000Y-59770000D01*
X152075000Y-59625000D02*
X152075000Y-59770000D01*
X152075000Y-64775000D02*
X152075000Y-64630000D01*
X147925000Y-64775000D02*
X147925000Y-64630000D01*
X147925000Y-59625000D02*
X152075000Y-59625000D01*
X147925000Y-64775000D02*
X152075000Y-64775000D01*
X147925000Y-59770000D02*
X146525000Y-59770000D01*
X161163000Y-59182000D02*
X161163000Y-56515000D01*
X161163000Y-56515000D02*
X163830000Y-56515000D01*
X161290000Y-64262000D02*
X161290000Y-66802000D01*
X161290000Y-66802000D02*
X163830000Y-66802000D01*
X161290000Y-59182000D02*
X163830000Y-59182000D01*
X163830000Y-59182000D02*
X163830000Y-56642000D01*
X161290000Y-64262000D02*
X161290000Y-56642000D01*
X161290000Y-56642000D02*
X166370000Y-56642000D01*
X166370000Y-56642000D02*
X166370000Y-66802000D01*
X166370000Y-66802000D02*
X163830000Y-66802000D01*
X152146000Y-48133000D02*
X155194000Y-48133000D01*
X155194000Y-48133000D02*
X155194000Y-41021000D01*
X155194000Y-41021000D02*
X152146000Y-41021000D01*
X149098000Y-48133000D02*
X148336000Y-48133000D01*
X148336000Y-48133000D02*
X146050000Y-46609000D01*
X146050000Y-46609000D02*
X146050000Y-42545000D01*
X146050000Y-42545000D02*
X148336000Y-41021000D01*
X148336000Y-41021000D02*
X149098000Y-41021000D01*
X162306000Y-43180000D02*
X162306000Y-50800000D01*
X164846000Y-43180000D02*
X164846000Y-50800000D01*
X165126000Y-40360000D02*
X165126000Y-41910000D01*
X162306000Y-50800000D02*
X164846000Y-50800000D01*
X164846000Y-43180000D02*
X162306000Y-43180000D01*
X162026000Y-41910000D02*
X162026000Y-40360000D01*
X162026000Y-40360000D02*
X165126000Y-40360000D01*
D13*
X132100000Y-46482000D02*
X129140000Y-46482000D01*
X121900000Y-46482000D02*
X127400000Y-46482000D01*
X123190000Y-51372000D02*
X128270000Y-51372000D01*
X128270000Y-51162000D02*
X132100000Y-51162000D01*
X121900000Y-51162000D02*
X123190000Y-51162000D01*
X128270000Y-51562000D02*
X132100000Y-51562000D01*
X121900000Y-51562000D02*
X123190000Y-51562000D01*
X123190000Y-50427000D02*
X123190000Y-52322000D01*
X128270000Y-50427000D02*
X128270000Y-52322000D01*
X123190000Y-50427000D02*
X128270000Y-50427000D01*
X121900000Y-46482000D02*
X121900000Y-52322000D01*
X121900000Y-52322000D02*
X132100000Y-52322000D01*
X132100000Y-52322000D02*
X132100000Y-46482000D01*
X129540000Y-48387000D02*
X130175000Y-47752000D01*
X130175000Y-47752000D02*
X131445000Y-47752000D01*
X131445000Y-47752000D02*
X132080000Y-48387000D01*
X132080000Y-48387000D02*
X132080000Y-49657000D01*
X132080000Y-49657000D02*
X131445000Y-50292000D01*
X131445000Y-50292000D02*
X130175000Y-50292000D01*
X130175000Y-50292000D02*
X129540000Y-49657000D01*
X124460000Y-48387000D02*
X125095000Y-47752000D01*
X125095000Y-47752000D02*
X126365000Y-47752000D01*
X126365000Y-47752000D02*
X127000000Y-48387000D01*
X127000000Y-48387000D02*
X127635000Y-47752000D01*
X127635000Y-47752000D02*
X128905000Y-47752000D01*
X128905000Y-47752000D02*
X129540000Y-48387000D01*
X129540000Y-49657000D02*
X128905000Y-50292000D01*
X128905000Y-50292000D02*
X127635000Y-50292000D01*
X127635000Y-50292000D02*
X127000000Y-49657000D01*
X127000000Y-49657000D02*
X126365000Y-50292000D01*
X126365000Y-50292000D02*
X125095000Y-50292000D01*
X125095000Y-50292000D02*
X124460000Y-49657000D01*
X121920000Y-48387000D02*
X122555000Y-47752000D01*
X122555000Y-47752000D02*
X123825000Y-47752000D01*
X123825000Y-47752000D02*
X124460000Y-48387000D01*
X124460000Y-49657000D02*
X123825000Y-50292000D01*
X123825000Y-50292000D02*
X122555000Y-50292000D01*
X122555000Y-50292000D02*
X121920000Y-49657000D01*
X121920000Y-49657000D02*
X121920000Y-48387000D01*
D11*
X135671560Y-66243200D02*
X127472440Y-66243200D01*
X135671560Y-66641980D02*
X127472440Y-66641980D01*
X135671560Y-71942960D02*
X127472440Y-71942960D01*
X127472440Y-72440800D02*
X135671560Y-72440800D01*
X132872480Y-71942960D02*
X132872480Y-72440800D01*
X127673100Y-72440800D02*
X127673100Y-71942960D01*
X135473440Y-71942960D02*
X135473440Y-72440800D01*
X130274060Y-72440800D02*
X130274060Y-71942960D01*
X135671560Y-72440800D02*
X135671560Y-66243200D01*
X127474980Y-66243200D02*
X127474980Y-72440800D01*
X128856000Y-37810000D02*
X128856000Y-37410000D01*
X125256000Y-37810000D02*
X125256000Y-37410000D01*
X132356000Y-38910000D02*
X121756000Y-38910000D01*
X132356000Y-37810000D02*
X121756000Y-37810000D01*
X132356000Y-45010000D02*
X132356000Y-37410000D01*
X121756000Y-37410000D02*
X121756000Y-45010000D01*
X121756000Y-45010000D02*
X132356000Y-45010000D01*
D10*
X121437714Y-66655905D02*
X121437714Y-65855905D01*
X121628190Y-65855905D01*
X121742476Y-65894000D01*
X121818667Y-65970190D01*
X121856762Y-66046381D01*
X121894857Y-66198762D01*
X121894857Y-66313048D01*
X121856762Y-66465429D01*
X121818667Y-66541619D01*
X121742476Y-66617810D01*
X121628190Y-66655905D01*
X121437714Y-66655905D01*
X122199619Y-66617810D02*
X122313905Y-66655905D01*
X122504381Y-66655905D01*
X122580571Y-66617810D01*
X122618667Y-66579714D01*
X122656762Y-66503524D01*
X122656762Y-66427333D01*
X122618667Y-66351143D01*
X122580571Y-66313048D01*
X122504381Y-66274952D01*
X122352000Y-66236857D01*
X122275809Y-66198762D01*
X122237714Y-66160667D01*
X122199619Y-66084476D01*
X122199619Y-66008286D01*
X122237714Y-65932095D01*
X122275809Y-65894000D01*
X122352000Y-65855905D01*
X122542476Y-65855905D01*
X122656762Y-65894000D01*
X123418667Y-66655905D02*
X122961524Y-66655905D01*
X123190095Y-66655905D02*
X123190095Y-65855905D01*
X123113905Y-65970190D01*
X123037714Y-66046381D01*
X122961524Y-66084476D01*
X123875810Y-66198762D02*
X123799619Y-66160667D01*
X123761524Y-66122571D01*
X123723429Y-66046381D01*
X123723429Y-66008286D01*
X123761524Y-65932095D01*
X123799619Y-65894000D01*
X123875810Y-65855905D01*
X124028191Y-65855905D01*
X124104381Y-65894000D01*
X124142477Y-65932095D01*
X124180572Y-66008286D01*
X124180572Y-66046381D01*
X124142477Y-66122571D01*
X124104381Y-66160667D01*
X124028191Y-66198762D01*
X123875810Y-66198762D01*
X123799619Y-66236857D01*
X123761524Y-66274952D01*
X123723429Y-66351143D01*
X123723429Y-66503524D01*
X123761524Y-66579714D01*
X123799619Y-66617810D01*
X123875810Y-66655905D01*
X124028191Y-66655905D01*
X124104381Y-66617810D01*
X124142477Y-66579714D01*
X124180572Y-66503524D01*
X124180572Y-66351143D01*
X124142477Y-66274952D01*
X124104381Y-66236857D01*
X124028191Y-66198762D01*
X124790096Y-66236857D02*
X124904382Y-66274952D01*
X124942477Y-66313048D01*
X124980572Y-66389238D01*
X124980572Y-66503524D01*
X124942477Y-66579714D01*
X124904382Y-66617810D01*
X124828191Y-66655905D01*
X124523429Y-66655905D01*
X124523429Y-65855905D01*
X124790096Y-65855905D01*
X124866286Y-65894000D01*
X124904382Y-65932095D01*
X124942477Y-66008286D01*
X124942477Y-66084476D01*
X124904382Y-66160667D01*
X124866286Y-66198762D01*
X124790096Y-66236857D01*
X124523429Y-66236857D01*
X125285334Y-65932095D02*
X125323429Y-65894000D01*
X125399620Y-65855905D01*
X125590096Y-65855905D01*
X125666286Y-65894000D01*
X125704382Y-65932095D01*
X125742477Y-66008286D01*
X125742477Y-66084476D01*
X125704382Y-66198762D01*
X125247239Y-66655905D01*
X125742477Y-66655905D01*
X126237715Y-65855905D02*
X126313906Y-65855905D01*
X126390096Y-65894000D01*
X126428191Y-65932095D01*
X126466287Y-66008286D01*
X126504382Y-66160667D01*
X126504382Y-66351143D01*
X126466287Y-66503524D01*
X126428191Y-66579714D01*
X126390096Y-66617810D01*
X126313906Y-66655905D01*
X126237715Y-66655905D01*
X126161525Y-66617810D01*
X126123429Y-66579714D01*
X126085334Y-66503524D01*
X126047239Y-66351143D01*
X126047239Y-66160667D01*
X126085334Y-66008286D01*
X126123429Y-65932095D01*
X126161525Y-65894000D01*
X126237715Y-65855905D01*
X162649048Y-52152571D02*
X162649048Y-52685905D01*
X162458572Y-51847810D02*
X162268096Y-52419238D01*
X162763334Y-52419238D01*
X163068096Y-52609714D02*
X163106191Y-52647810D01*
X163068096Y-52685905D01*
X163030001Y-52647810D01*
X163068096Y-52609714D01*
X163068096Y-52685905D01*
X163372858Y-51885905D02*
X163906191Y-51885905D01*
X163563334Y-52685905D01*
X164210953Y-52152571D02*
X164210953Y-52952571D01*
X164591906Y-52571619D02*
X164630001Y-52647810D01*
X164706191Y-52685905D01*
X164210953Y-52571619D02*
X164249048Y-52647810D01*
X164325239Y-52685905D01*
X164477620Y-52685905D01*
X164553810Y-52647810D01*
X164591906Y-52571619D01*
X164591906Y-52152571D01*
X165315715Y-52266857D02*
X165049048Y-52266857D01*
X165049048Y-52685905D02*
X165049048Y-51885905D01*
X165430001Y-51885905D01*
X137737905Y-57410285D02*
X137737905Y-57791238D01*
X138118857Y-57829333D01*
X138080762Y-57791238D01*
X138042667Y-57715047D01*
X138042667Y-57524571D01*
X138080762Y-57448381D01*
X138118857Y-57410285D01*
X138195048Y-57372190D01*
X138385524Y-57372190D01*
X138461714Y-57410285D01*
X138499810Y-57448381D01*
X138537905Y-57524571D01*
X138537905Y-57715047D01*
X138499810Y-57791238D01*
X138461714Y-57829333D01*
X137737905Y-56686476D02*
X137737905Y-56838857D01*
X137776000Y-56915047D01*
X137814095Y-56953142D01*
X137928381Y-57029333D01*
X138080762Y-57067428D01*
X138385524Y-57067428D01*
X138461714Y-57029333D01*
X138499810Y-56991238D01*
X138537905Y-56915047D01*
X138537905Y-56762666D01*
X138499810Y-56686476D01*
X138461714Y-56648380D01*
X138385524Y-56610285D01*
X138195048Y-56610285D01*
X138118857Y-56648380D01*
X138080762Y-56686476D01*
X138042667Y-56762666D01*
X138042667Y-56915047D01*
X138080762Y-56991238D01*
X138118857Y-57029333D01*
X138195048Y-57067428D01*
X138537905Y-56267428D02*
X137737905Y-56267428D01*
X138233143Y-56191237D02*
X138537905Y-55962666D01*
X138004571Y-55962666D02*
X138309333Y-56267428D01*
X137737905Y-63506285D02*
X137737905Y-63887238D01*
X138118857Y-63925333D01*
X138080762Y-63887238D01*
X138042667Y-63811047D01*
X138042667Y-63620571D01*
X138080762Y-63544381D01*
X138118857Y-63506285D01*
X138195048Y-63468190D01*
X138385524Y-63468190D01*
X138461714Y-63506285D01*
X138499810Y-63544381D01*
X138537905Y-63620571D01*
X138537905Y-63811047D01*
X138499810Y-63887238D01*
X138461714Y-63925333D01*
X137737905Y-62782476D02*
X137737905Y-62934857D01*
X137776000Y-63011047D01*
X137814095Y-63049142D01*
X137928381Y-63125333D01*
X138080762Y-63163428D01*
X138385524Y-63163428D01*
X138461714Y-63125333D01*
X138499810Y-63087238D01*
X138537905Y-63011047D01*
X138537905Y-62858666D01*
X138499810Y-62782476D01*
X138461714Y-62744380D01*
X138385524Y-62706285D01*
X138195048Y-62706285D01*
X138118857Y-62744380D01*
X138080762Y-62782476D01*
X138042667Y-62858666D01*
X138042667Y-63011047D01*
X138080762Y-63087238D01*
X138118857Y-63125333D01*
X138195048Y-63163428D01*
X138537905Y-62363428D02*
X137737905Y-62363428D01*
X138233143Y-62287237D02*
X138537905Y-62058666D01*
X138004571Y-62058666D02*
X138309333Y-62363428D01*
X148075715Y-68141905D02*
X147694762Y-68141905D01*
X147656667Y-68522857D01*
X147694762Y-68484762D01*
X147770953Y-68446667D01*
X147961429Y-68446667D01*
X148037619Y-68484762D01*
X148075715Y-68522857D01*
X148113810Y-68599048D01*
X148113810Y-68789524D01*
X148075715Y-68865714D01*
X148037619Y-68903810D01*
X147961429Y-68941905D01*
X147770953Y-68941905D01*
X147694762Y-68903810D01*
X147656667Y-68865714D01*
X148799524Y-68141905D02*
X148647143Y-68141905D01*
X148570953Y-68180000D01*
X148532858Y-68218095D01*
X148456667Y-68332381D01*
X148418572Y-68484762D01*
X148418572Y-68789524D01*
X148456667Y-68865714D01*
X148494762Y-68903810D01*
X148570953Y-68941905D01*
X148723334Y-68941905D01*
X148799524Y-68903810D01*
X148837620Y-68865714D01*
X148875715Y-68789524D01*
X148875715Y-68599048D01*
X148837620Y-68522857D01*
X148799524Y-68484762D01*
X148723334Y-68446667D01*
X148570953Y-68446667D01*
X148494762Y-68484762D01*
X148456667Y-68522857D01*
X148418572Y-68599048D01*
X149218572Y-68941905D02*
X149218572Y-68141905D01*
X149294763Y-68637143D02*
X149523334Y-68941905D01*
X149523334Y-68408571D02*
X149218572Y-68713333D01*
X152933572Y-68141905D02*
X153009763Y-68141905D01*
X153085953Y-68180000D01*
X153124048Y-68218095D01*
X153162144Y-68294286D01*
X153200239Y-68446667D01*
X153200239Y-68637143D01*
X153162144Y-68789524D01*
X153124048Y-68865714D01*
X153085953Y-68903810D01*
X153009763Y-68941905D01*
X152933572Y-68941905D01*
X152857382Y-68903810D01*
X152819286Y-68865714D01*
X152781191Y-68789524D01*
X152743096Y-68637143D01*
X152743096Y-68446667D01*
X152781191Y-68294286D01*
X152819286Y-68218095D01*
X152857382Y-68180000D01*
X152933572Y-68141905D01*
X153543096Y-68865714D02*
X153581191Y-68903810D01*
X153543096Y-68941905D01*
X153505001Y-68903810D01*
X153543096Y-68865714D01*
X153543096Y-68941905D01*
X154343096Y-68941905D02*
X153885953Y-68941905D01*
X154114524Y-68941905D02*
X154114524Y-68141905D01*
X154038334Y-68256190D01*
X153962143Y-68332381D01*
X153885953Y-68370476D01*
X154685953Y-68408571D02*
X154685953Y-69208571D01*
X155066906Y-68827619D02*
X155105001Y-68903810D01*
X155181191Y-68941905D01*
X154685953Y-68827619D02*
X154724048Y-68903810D01*
X154800239Y-68941905D01*
X154952620Y-68941905D01*
X155028810Y-68903810D01*
X155066906Y-68827619D01*
X155066906Y-68408571D01*
X155790715Y-68522857D02*
X155524048Y-68522857D01*
X155524048Y-68941905D02*
X155524048Y-68141905D01*
X155905001Y-68141905D01*
X150266572Y-57854905D02*
X150342763Y-57854905D01*
X150418953Y-57893000D01*
X150457048Y-57931095D01*
X150495144Y-58007286D01*
X150533239Y-58159667D01*
X150533239Y-58350143D01*
X150495144Y-58502524D01*
X150457048Y-58578714D01*
X150418953Y-58616810D01*
X150342763Y-58654905D01*
X150266572Y-58654905D01*
X150190382Y-58616810D01*
X150152286Y-58578714D01*
X150114191Y-58502524D01*
X150076096Y-58350143D01*
X150076096Y-58159667D01*
X150114191Y-58007286D01*
X150152286Y-57931095D01*
X150190382Y-57893000D01*
X150266572Y-57854905D01*
X150876096Y-58578714D02*
X150914191Y-58616810D01*
X150876096Y-58654905D01*
X150838001Y-58616810D01*
X150876096Y-58578714D01*
X150876096Y-58654905D01*
X151676096Y-58654905D02*
X151218953Y-58654905D01*
X151447524Y-58654905D02*
X151447524Y-57854905D01*
X151371334Y-57969190D01*
X151295143Y-58045381D01*
X151218953Y-58083476D01*
X152018953Y-58121571D02*
X152018953Y-58921571D01*
X152399906Y-58540619D02*
X152438001Y-58616810D01*
X152514191Y-58654905D01*
X152018953Y-58540619D02*
X152057048Y-58616810D01*
X152133239Y-58654905D01*
X152285620Y-58654905D01*
X152361810Y-58616810D01*
X152399906Y-58540619D01*
X152399906Y-58121571D01*
X153123715Y-58235857D02*
X152857048Y-58235857D01*
X152857048Y-58654905D02*
X152857048Y-57854905D01*
X153238001Y-57854905D01*
X121748571Y-63734857D02*
X122281905Y-63734857D01*
X121443810Y-63925333D02*
X122015238Y-64115809D01*
X122015238Y-63620571D01*
X122205714Y-63315809D02*
X122243810Y-63277714D01*
X122281905Y-63315809D01*
X122243810Y-63353904D01*
X122205714Y-63315809D01*
X122281905Y-63315809D01*
X121481905Y-63011047D02*
X121481905Y-62477714D01*
X122281905Y-62820571D01*
X122281905Y-62172952D02*
X121481905Y-62172952D01*
X121977143Y-62096761D02*
X122281905Y-61868190D01*
X121748571Y-61868190D02*
X122053333Y-62172952D01*
X146069143Y-56216571D02*
X146069143Y-56749905D01*
X145878667Y-55911810D02*
X145688191Y-56483238D01*
X146183429Y-56483238D01*
X146488191Y-56673714D02*
X146526286Y-56711810D01*
X146488191Y-56749905D01*
X146450096Y-56711810D01*
X146488191Y-56673714D01*
X146488191Y-56749905D01*
X146792953Y-55949905D02*
X147326286Y-55949905D01*
X146983429Y-56749905D01*
X147631048Y-56749905D02*
X147631048Y-55949905D01*
X147707239Y-56445143D02*
X147935810Y-56749905D01*
X147935810Y-56216571D02*
X147631048Y-56521333D01*
X167493905Y-64541048D02*
X166693905Y-64541048D01*
X167493905Y-64083905D01*
X166693905Y-64083905D01*
X167493905Y-63245810D02*
X167112952Y-63512477D01*
X167493905Y-63702953D02*
X166693905Y-63702953D01*
X166693905Y-63398191D01*
X166732000Y-63322000D01*
X166770095Y-63283905D01*
X166846286Y-63245810D01*
X166960571Y-63245810D01*
X167036762Y-63283905D01*
X167074857Y-63322000D01*
X167112952Y-63398191D01*
X167112952Y-63702953D01*
X167074857Y-62636286D02*
X167074857Y-62902953D01*
X167493905Y-62902953D02*
X166693905Y-62902953D01*
X166693905Y-62522000D01*
X166770095Y-62255334D02*
X166732000Y-62217239D01*
X166693905Y-62141048D01*
X166693905Y-61950572D01*
X166732000Y-61874382D01*
X166770095Y-61836286D01*
X166846286Y-61798191D01*
X166922476Y-61798191D01*
X167036762Y-61836286D01*
X167493905Y-62293429D01*
X167493905Y-61798191D01*
X166960571Y-61112477D02*
X167493905Y-61112477D01*
X166655810Y-61302953D02*
X167227238Y-61493429D01*
X167227238Y-60998191D01*
X167493905Y-60312476D02*
X167493905Y-60693429D01*
X166693905Y-60693429D01*
X166693905Y-59893429D02*
X166693905Y-59817238D01*
X166732000Y-59741048D01*
X166770095Y-59702953D01*
X166846286Y-59664857D01*
X166998667Y-59626762D01*
X167189143Y-59626762D01*
X167341524Y-59664857D01*
X167417714Y-59702953D01*
X167455810Y-59741048D01*
X167493905Y-59817238D01*
X167493905Y-59893429D01*
X167455810Y-59969619D01*
X167417714Y-60007715D01*
X167341524Y-60045810D01*
X167189143Y-60083905D01*
X166998667Y-60083905D01*
X166846286Y-60045810D01*
X166770095Y-60007715D01*
X166732000Y-59969619D01*
X166693905Y-59893429D01*
X167493905Y-58864857D02*
X167493905Y-59322000D01*
X167493905Y-59093429D02*
X166693905Y-59093429D01*
X166808190Y-59169619D01*
X166884381Y-59245810D01*
X166922476Y-59322000D01*
X161524905Y-46500952D02*
X160724905Y-46500952D01*
X160801095Y-46158095D02*
X160763000Y-46120000D01*
X160724905Y-46043809D01*
X160724905Y-45853333D01*
X160763000Y-45777143D01*
X160801095Y-45739047D01*
X160877286Y-45700952D01*
X160953476Y-45700952D01*
X161067762Y-45739047D01*
X161524905Y-46196190D01*
X161524905Y-45700952D01*
X161448714Y-44900952D02*
X161486810Y-44939047D01*
X161524905Y-45053333D01*
X161524905Y-45129523D01*
X161486810Y-45243809D01*
X161410619Y-45320000D01*
X161334429Y-45358095D01*
X161182048Y-45396190D01*
X161067762Y-45396190D01*
X160915381Y-45358095D01*
X160839190Y-45320000D01*
X160763000Y-45243809D01*
X160724905Y-45129523D01*
X160724905Y-45053333D01*
X160763000Y-44939047D01*
X160801095Y-44900952D01*
X132657857Y-49758524D02*
X132657857Y-50025191D01*
X133076905Y-50025191D02*
X132276905Y-50025191D01*
X132276905Y-49644238D01*
X133076905Y-48996620D02*
X132657857Y-48996620D01*
X132581667Y-49034715D01*
X132543571Y-49110905D01*
X132543571Y-49263286D01*
X132581667Y-49339477D01*
X133038810Y-48996620D02*
X133076905Y-49072810D01*
X133076905Y-49263286D01*
X133038810Y-49339477D01*
X132962619Y-49377572D01*
X132886429Y-49377572D01*
X132810238Y-49339477D01*
X132772143Y-49263286D01*
X132772143Y-49072810D01*
X132734048Y-48996620D01*
X132543571Y-48615667D02*
X133076905Y-48615667D01*
X132619762Y-48615667D02*
X132581667Y-48577572D01*
X132543571Y-48501381D01*
X132543571Y-48387095D01*
X132581667Y-48310905D01*
X132657857Y-48272810D01*
X133076905Y-48272810D01*
X129552953Y-66744905D02*
X129705334Y-66744905D01*
X129781525Y-66783000D01*
X129857715Y-66859190D01*
X129895810Y-67011571D01*
X129895810Y-67278238D01*
X129857715Y-67430619D01*
X129781525Y-67506810D01*
X129705334Y-67544905D01*
X129552953Y-67544905D01*
X129476763Y-67506810D01*
X129400572Y-67430619D01*
X129362477Y-67278238D01*
X129362477Y-67011571D01*
X129400572Y-66859190D01*
X129476763Y-66783000D01*
X129552953Y-66744905D01*
X130238667Y-67011571D02*
X130238667Y-67544905D01*
X130238667Y-67087762D02*
X130276762Y-67049667D01*
X130352953Y-67011571D01*
X130467239Y-67011571D01*
X130543429Y-67049667D01*
X130581524Y-67125857D01*
X130581524Y-67544905D01*
X131267239Y-67506810D02*
X131191049Y-67544905D01*
X131038668Y-67544905D01*
X130962477Y-67506810D01*
X130924382Y-67430619D01*
X130924382Y-67125857D01*
X130962477Y-67049667D01*
X131038668Y-67011571D01*
X131191049Y-67011571D01*
X131267239Y-67049667D01*
X131305334Y-67125857D01*
X131305334Y-67202048D01*
X130924382Y-67278238D01*
X131572001Y-66744905D02*
X131762477Y-67544905D01*
X131914858Y-66973476D01*
X132067239Y-67544905D01*
X132257715Y-66744905D01*
X132562477Y-67544905D02*
X132562477Y-67011571D01*
X132562477Y-66744905D02*
X132524382Y-66783000D01*
X132562477Y-66821095D01*
X132600572Y-66783000D01*
X132562477Y-66744905D01*
X132562477Y-66821095D01*
X132943429Y-67544905D02*
X132943429Y-67011571D01*
X132943429Y-67163952D02*
X132981524Y-67087762D01*
X133019620Y-67049667D01*
X133095810Y-67011571D01*
X133172001Y-67011571D01*
X133743429Y-67506810D02*
X133667239Y-67544905D01*
X133514858Y-67544905D01*
X133438667Y-67506810D01*
X133400572Y-67430619D01*
X133400572Y-67125857D01*
X133438667Y-67049667D01*
X133514858Y-67011571D01*
X133667239Y-67011571D01*
X133743429Y-67049667D01*
X133781524Y-67125857D01*
X133781524Y-67202048D01*
X133400572Y-67278238D01*
X133561905Y-39914285D02*
X133561905Y-40295238D01*
X132761905Y-40295238D01*
X133142857Y-39647619D02*
X133142857Y-39380952D01*
X133561905Y-39266666D02*
X133561905Y-39647619D01*
X132761905Y-39647619D01*
X132761905Y-39266666D01*
X133561905Y-38923809D02*
X132761905Y-38923809D01*
X132761905Y-38733333D01*
X132800000Y-38619047D01*
X132876190Y-38542856D01*
X132952381Y-38504761D01*
X133104762Y-38466666D01*
X133219048Y-38466666D01*
X133371429Y-38504761D01*
X133447619Y-38542856D01*
X133523810Y-38619047D01*
X133561905Y-38733333D01*
X133561905Y-38923809D01*
M02*
