G04 #@! TF.FileFunction,Soldermask,Bot*
%FSLAX46Y46*%
G04 Gerber Fmt 4.6, Leading zero omitted, Abs format (unit mm)*
G04 Created by KiCad (PCBNEW 4.0.2-stable) date Samedi 23 avril 2016 19:09:36*
%MOMM*%
G01*
G04 APERTURE LIST*
%ADD10C,0.100000*%
%ADD11O,2.199640X1.501140*%
%ADD12O,1.501140X2.199640*%
%ADD13C,4.064000*%
%ADD14O,1.699260X3.500120*%
%ADD15O,3.500120X1.699260*%
%ADD16O,1.501140X0.899160*%
%ADD17O,1.727200X1.727200*%
%ADD18R,1.727200X1.727200*%
%ADD19R,2.032000X1.727200*%
%ADD20O,2.032000X1.727200*%
%ADD21R,1.676400X1.676400*%
%ADD22C,1.676400*%
%ADD23C,1.250000*%
%ADD24O,1.998980X1.998980*%
%ADD25R,1.998980X1.998980*%
%ADD26C,2.400000*%
%ADD27R,2.400000X2.400000*%
G04 APERTURE END LIST*
D10*
D11*
X156202000Y-61536000D03*
X156202000Y-64076000D03*
X143502000Y-42486000D03*
X143502000Y-45026000D03*
X143502000Y-47566000D03*
X143502000Y-50106000D03*
X143502000Y-52646000D03*
X143502000Y-55186000D03*
X143502000Y-57726000D03*
X143502000Y-60266000D03*
X143502000Y-62806000D03*
X143502000Y-65346000D03*
X143502000Y-67886000D03*
X143502000Y-70426000D03*
X158742000Y-70426000D03*
X158742000Y-67886000D03*
X158742000Y-65346000D03*
X158742000Y-62806000D03*
X158742000Y-60266000D03*
X158742000Y-57726000D03*
X158742000Y-55186000D03*
X158742000Y-52646000D03*
X158742000Y-50106000D03*
X158742000Y-47566000D03*
X158742000Y-45026000D03*
X158742000Y-42486000D03*
X156202000Y-53916000D03*
X156202000Y-51376000D03*
D12*
X156202000Y-70426000D03*
X153662000Y-70426000D03*
X151122000Y-70426000D03*
D13*
X163938000Y-37338000D03*
X138938000Y-37338000D03*
D14*
X131826000Y-56134000D03*
X134366000Y-56134000D03*
X129286000Y-56134000D03*
X131826000Y-62230000D03*
X134366000Y-62230000D03*
X129286000Y-62230000D03*
D15*
X135890000Y-46228000D03*
X135890000Y-43688000D03*
X135890000Y-48768000D03*
D16*
X124206000Y-69088000D03*
X124206000Y-67818000D03*
X124206000Y-70358000D03*
D13*
X138938000Y-70104000D03*
X163938000Y-70104000D03*
D17*
X162560000Y-65532000D03*
X165100000Y-65532000D03*
X162560000Y-62992000D03*
X165100000Y-62992000D03*
X162560000Y-60452000D03*
X165100000Y-60452000D03*
D18*
X162560000Y-57912000D03*
D17*
X165100000Y-57912000D03*
D19*
X163576000Y-41910000D03*
D20*
X163576000Y-44450000D03*
X163576000Y-46990000D03*
X163576000Y-49530000D03*
D21*
X123190000Y-49022000D03*
D22*
X125730000Y-49022000D03*
X128270000Y-49022000D03*
X130810000Y-49022000D03*
D23*
X128270000Y-46862000D03*
D24*
X134112000Y-69342000D03*
D25*
X129032000Y-69342000D03*
D24*
X131572000Y-69342000D03*
D26*
X127056000Y-41910000D03*
X123556000Y-41910000D03*
D27*
X130556000Y-41910000D03*
M02*
